<svg xmlns="http://www.w3.org/2000/svg" xmlns:xlink="http://www.w3.org/1999/xlink" viewBox="0 0 96 66"><defs><style>.cls-1{fill:#416b87;fill-rule:evenodd;}</style><symbol id="Camera" data-name="Camera" viewBox="0 0 512 352"><g id="_9e2ccb84-bdd2-4ae8-ac92-870ff50424ba.psd" data-name="9e2ccb84-bdd2-4ae8-ac92-870ff50424ba.psd"><g id="Forma_1" data-name="Forma 1"><path class="cls-1" d="M256,112a80,80,0,1,0,80,80A80,80,0,0,0,256,112ZM480,32H160A32,32,0,0,0,128,0H96A32,32,0,0,0,64,32H32A32,32,0,0,0,0,64V320a32,32,0,0,0,32,32H480a32,32,0,0,0,32-32V64A32,32,0,0,0,480,32ZM256,304A112,112,0,1,1,368,192,112.14,112.14,0,0,1,256,304ZM448,96H384V64h64Z"/></g></g></symbol></defs><title>Camera</title><g id="Layer_2" data-name="Layer 2"><g id="Layer_1-2" data-name="Layer 1"><g id="New_Symbol_8" data-name="New Symbol 8"><use width="512" height="352" transform="scale(0.19)" xlink:href="#Camera"/></g></g></g></svg>