<?xml version="1.0" standalone="no"?>
<!DOCTYPE svg PUBLIC "-//W3C//DTD SVG 20010904//EN"
 "http://www.w3.org/TR/2001/REC-SVG-20010904/DTD/svg10.dtd">
<svg version="1.0" xmlns="http://www.w3.org/2000/svg"
 width="144.000000pt" height="144.000000pt" viewBox="0 0 144.000000 144.000000"
 preserveAspectRatio="xMidYMid meet">
<metadata>
Created by potrace 1.11, written by Peter Selinger 2001-2013
</metadata>
<g transform="translate(0.000000,144.000000) scale(0.100000,-0.100000)"
fill="#000000" stroke="none">
<path d="M681 1257 c-5 -13 -46 -100 -91 -193 -152 -312 -153 -317 -124 -328
8 -3 121 -6 249 -5 186 0 236 3 245 14 12 15 3 38 -125 310 -26 55 -60 128
-76 163 -31 68 -62 83 -78 39z"/>
<path d="M384 615 c-13 -9 -123 -227 -153 -302 -13 -33 -9 -53 12 -53 17 0
553 308 568 326 26 32 -4 37 -212 38 -121 1 -207 -3 -215 -9z"/>
<path d="M680 375 c-195 -112 -356 -210 -358 -218 -2 -8 2 -18 8 -22 9 -6 819
-11 903 -6 19 1 23 31 7 59 -5 9 -46 96 -91 192 -79 171 -95 200 -108 200 -3
-1 -166 -92 -361 -205z"/>
</g>
</svg>
