<svg xmlns="http://www.w3.org/2000/svg" xmlns:xlink="http://www.w3.org/1999/xlink" viewBox="0 0 48 48.01"><defs><style>.cls-1{fill:#fff;}</style><symbol id="New_Symbol_1" data-name="New Symbol 1" viewBox="0 0 64 64.02"><path class="cls-1" d="M60.85,64c-1.84,0-4.25-1.3-7.54-3.07a45,45,0,0,0-4.7-2.32A31.74,31.74,0,0,1,9.3,9.3,31.74,31.74,0,0,1,58.51,48.8a47.23,47.23,0,0,0,2.35,4.6c2.65,4.79,4.25,7.68,2.23,9.69A3,3,0,0,1,60.85,64ZM31.74,5A26.7,26.7,0,1,0,46.46,54c2.06-1.36,4.76.09,9.23,2.5l1.58.84-.83-1.51c-2.55-4.6-3.95-7.13-2.57-9.18A26.7,26.7,0,0,0,31.74,5Z"/><path class="cls-1" d="M43.8,24.08H19.72a2.52,2.52,0,1,1,0-5H43.8a2.52,2.52,0,1,1,0,5Z"/><path class="cls-1" d="M35.56,34.16H19.72a2.52,2.52,0,0,1,0-5H35.56a2.52,2.52,0,0,1,0,5Z"/><path class="cls-1" d="M27.64,44.24H19.72a2.52,2.52,0,0,1,0-5h7.92a2.52,2.52,0,0,1,0,5Z"/></symbol></defs><title>Send Message</title><g id="Layer_2" data-name="Layer 2"><g id="Layer_1-2" data-name="Layer 1"><g id="New_Symbol_20" data-name="New Symbol 20"><use width="64" height="64.02" transform="scale(0.75)" xlink:href="#New_Symbol_1"/></g></g></g></svg>