<svg id="Layer_1" data-name="Layer 1" xmlns="http://www.w3.org/2000/svg" viewBox="0 0 34 33.97"><defs><style>.cls-1{fill:#fff;}</style></defs><title>edit_w</title><g id="Layer_2" data-name="Layer 2"><g id="Layer_1-2" data-name="Layer 1-2"><g id="_8f9b0a88-51d9-4647-bc41-badcce75c9f5.psd" data-name=" 8f9b0a88-51d9-4647-bc41-badcce75c9f5.psd"><g id="Pencil"><path class="cls-1" d="M32,1.67A5.41,5.41,0,0,0,28.19,0a6.14,6.14,0,0,0-4.1,1.79l-21,21a1.09,1.09,0,0,0-.28.48C2.37,25,.07,32.49,0,32.57a1.09,1.09,0,0,0,.27,1.09,1.07,1.07,0,0,0,1.09.26c.08,0,7.86-2.54,9.14-2.92a1.08,1.08,0,0,0,.45-.27c.81-.8,19.82-19.6,21.08-20.9a5.87,5.87,0,0,0,2-4.16A5.72,5.72,0,0,0,32,1.67ZM23.75,5.19a6.71,6.71,0,0,1,3.12,1.87,6.49,6.49,0,0,1,1.74,3.19C24.43,14.39,14.83,23.9,11.05,27.63a8.66,8.66,0,0,0-1.82-2.71,9.37,9.37,0,0,0-3.11-2.1ZM4.69,24.61a6.81,6.81,0,0,1,3,1.85,6.61,6.61,0,0,1,1.6,2.66c-1.47.47-4.69,1.58-6.75,2.25C3.17,29.36,4.2,26.25,4.69,24.61ZM30.53,8.32l-.2.2a8.77,8.77,0,0,0-1.94-3,9.35,9.35,0,0,0-2.94-2l.15-.15A4.11,4.11,0,0,1,28.19,2.2a3.35,3.35,0,0,1,2.31,1,3.67,3.67,0,0,1,1.35,2.47A3.83,3.83,0,0,1,30.53,8.32Z"/></g></g></g></g></svg>