<svg xmlns="http://www.w3.org/2000/svg" xmlns:xlink="http://www.w3.org/1999/xlink" viewBox="0 0 80 80"><defs><style>.cls-1{fill:#fff;}.cls-2{fill:#f05440;}</style><symbol id="New_Symbol" data-name="New Symbol" viewBox="0 0 64 62.3"><g id="_Group_" data-name="&lt;Group&gt;"><path class="cls-1" d="M51.63,51.42a2.5,2.5,0,0,1-.77,2.19l-7.27,7.22a4.1,4.1,0,0,1-1.28.93,5.32,5.32,0,0,1-1.56.49l-.33,0q-.27,0-.71,0a25.24,25.24,0,0,1-3.36-.36,25.51,25.51,0,0,1-5.69-1.75A47.78,47.78,0,0,1,23,56,56.91,56.91,0,0,1,14,48.36a60,60,0,0,1-6.34-7.22,51.41,51.41,0,0,1-4-6.37,34.26,34.26,0,0,1-2.3-5.3,28.13,28.13,0,0,1-1-4.1A13.52,13.52,0,0,1,0,22.66q.05-1,.05-1.09A5.31,5.31,0,0,1,.56,20a4.09,4.09,0,0,1,.93-1.28l7.27-7.27a2.41,2.41,0,0,1,1.75-.77,2,2,0,0,1,1.26.41,3.81,3.81,0,0,1,.93,1l5.85,11.1a2.66,2.66,0,0,1,.27,1.91,3.4,3.4,0,0,1-.93,1.75l-2.68,2.68a.91.91,0,0,0-.19.36,1.35,1.35,0,0,0-.08.41,9.86,9.86,0,0,0,1,2.62,24.11,24.11,0,0,0,2,3.2,35.53,35.53,0,0,0,3.88,4.35A36.2,36.2,0,0,0,26.2,44.4a25.25,25.25,0,0,0,3.2,2.05,8.53,8.53,0,0,0,2,.79l.68.14a1.31,1.31,0,0,0,.36-.08.91.91,0,0,0,.36-.19l3.12-3.17a3.35,3.35,0,0,1,2.3-.88,2.86,2.86,0,0,1,1.48.33h.05l10.55,6.23a2.75,2.75,0,0,1,1.37,1.81Z"/></g><path id="_Path_" data-name="&lt;Path&gt;" class="cls-1" d="M23.45,22.23c5.22-7.55,12.22-14.94,24-15.45a1.59,1.59,0,0,0,.4-.06,1.8,1.8,0,0,0,1.75-1.83c0-1.19,0-3.39.12-4.88,2.49,1.77,5,4,7.48,6.09C59.43,8,61.74,10,64,11.7c-2.43,1.44-4.82,3.13-7.14,4.77s-4.9,3.47-7.44,4.94A34.35,34.35,0,0,0,49,16.64a1.74,1.74,0,0,0-.6-1A1.86,1.86,0,0,0,47.05,15c-7.67-.43-15.15,1.87-23.6,7.27Z"/></symbol><symbol id="New_Symbol_12" data-name="New Symbol 12" viewBox="0 0 110 110"><circle class="cls-2" cx="55" cy="55" r="55"/><use width="64" height="62.31" transform="translate(23 22.85)" xlink:href="#New_Symbol"/></symbol></defs><title>Call</title><g id="Layer_2" data-name="Layer 2"><g id="Layer_1-2" data-name="Layer 1"><use width="110" height="110" transform="scale(0.73)" xlink:href="#New_Symbol_12"/></g></g></svg>