<svg xmlns="http://www.w3.org/2000/svg" xmlns:xlink="http://www.w3.org/1999/xlink" viewBox="0 0 61 35.41"><defs><style>.cls-1{fill:#fff;}</style><symbol id="New_Symbol_6" data-name="New Symbol 6" viewBox="0 0 44.86 26.04"><path id="_Path_" data-name="&lt;Path&gt;" class="cls-1" d="M12,24.24a1.31,1.31,0,0,1-.84-1.41,49,49,0,0,1,1-5.72,4.24,4.24,0,0,1,2-2.11c1.3-.76,2.78-1.19,4.15-1.85A14.39,14.39,0,0,0,20,11.91c-.54-1-.93-1.86-1.42-2.63-1.42-2.22-.82-4.55-.27-6.79C18.76.84,21.2-.21,23.24,0A4.36,4.36,0,0,1,27.16,3.6,9.3,9.3,0,0,1,25,11.81a17.36,17.36,0,0,0,2,1.34,27.37,27.37,0,0,0,3.64,1.54,3.75,3.75,0,0,1,2.79,3.24c.24,1.61.41,3.24.61,4.95a1.27,1.27,0,0,1-.79,1.34A32.19,32.19,0,0,1,12,24.24Z"/><path id="_Path_2" data-name="&lt;Path&gt;" class="cls-1" d="M35.27,23.25c-.54-3.7-.19-9-5.13-10,0-.27,0-.41.08-.44,2.16-1.35,2.28-1.42.94-3.63-1.23-2-.74-4.08-.36-6.1C31.1,1.61,33.19.64,35.13.8a3.74,3.74,0,0,1,3.57,2.92c.45,2.33.41,4.59-1.12,6.55-.79,1-.36,1.6.57,2,1.33.61,2.67,1.22,4,1.73a2.9,2.9,0,0,1,2,2.29c.25,1.44.43,2.89.63,4.42a1.18,1.18,0,0,1-1.19,1.33C40.8,22,38.31,22,35.27,23.25Z"/><path id="_Path_3" data-name="&lt;Path&gt;" class="cls-1" d="M9.59,23.25c.54-3.7.19-9,5.13-10,0-.27,0-.41-.08-.44-2.16-1.35-2.28-1.42-.94-3.63,1.23-2,.74-4.08.36-6.1C13.76,1.61,11.67.64,9.73.8A3.74,3.74,0,0,0,6.16,3.72c-.45,2.33-.41,4.59,1.12,6.55.79,1,.36,1.6-.57,2-1.33.61-2.67,1.22-4,1.73a2.9,2.9,0,0,0-2,2.29C.39,17.77.21,19.22,0,20.75A1.18,1.18,0,0,0,1.2,22.07C4.06,22,6.55,22,9.59,23.25Z"/></symbol></defs><title>Create group_1</title><g id="Layer_2" data-name="Layer 2"><g id="Layer_1-2" data-name="Layer 1"><g id="New_Symbol_20" data-name="New Symbol 20"><use width="44.86" height="26.04" transform="scale(1.36)" xlink:href="#New_Symbol_6"/></g></g></g></svg>