<svg xmlns="http://www.w3.org/2000/svg" width="30.5" height="32.5" viewBox="0 0 30.5 32.5">
    <defs>
        <style>
            .cls-1{fill:#6353f4;stroke:#6353f4;stroke-width:.5px}
        </style>
    </defs>
    <g id="ic_bell" transform="translate(.25 .25)">
        <path id="Path_12915" d="M371.1 36.679a1.012 1.012 0 0 1-1.023-1 14.084 14.084 0 0 0-4.293-10.136.985.985 0 0 1 0-1.415 1.04 1.04 0 0 1 1.447 0 16.052 16.052 0 0 1 4.891 11.551 1.012 1.012 0 0 1-1.023 1zm0 0" class="cls-1" data-name="Path 12915" transform="translate(-342.126 -22.346)"/>
        <path id="Path_12916" d="M1.023 36.7A1.012 1.012 0 0 1 0 35.7a16.044 16.044 0 0 1 4.893-11.552 1.04 1.04 0 0 1 1.447 0 .985.985 0 0 1 0 1.415A14.075 14.075 0 0 0 2.045 35.7a1.012 1.012 0 0 1-1.023 1zm0 0" class="cls-1" data-name="Path 12916" transform="translate(0 -22.365)"/>
        <path id="Path_12917" d="M159.782 422a5.063 5.063 0 0 1-5.114-5 1.023 1.023 0 0 1 2.045 0 3.069 3.069 0 0 0 6.136 0 1.023 1.023 0 0 1 2.045 0 5.063 5.063 0 0 1-5.112 5zm0 0" class="cls-1" data-name="Path 12917" transform="translate(-144.782 -390)"/>
        <path id="Path_12918" d="M46.219 88h-22.5a2.363 2.363 0 0 1-2.387-2.333 2.31 2.31 0 0 1 .835-1.773 8.857 8.857 0 0 0 3.256-6.842v-3.718a9.548 9.548 0 0 1 19.091 0v3.718a8.854 8.854 0 0 0 3.243 6.833 2.313 2.313 0 0 1 .848 1.783A2.363 2.363 0 0 1 46.219 88zm-11.25-22a7.426 7.426 0 0 0-7.5 7.333v3.718a10.83 10.83 0 0 1-3.968 8.36.33.33 0 0 0-.123.256.341.341 0 0 0 .341.333h22.5a.341.341 0 0 0 .341-.333.326.326 0 0 0-.12-.253 10.834 10.834 0 0 1-3.971-8.363v-3.717a7.426 7.426 0 0 0-7.5-7.334zm0 0" class="cls-1" data-name="Path 12918" transform="translate(-19.969 -60)"/>
        <path id="Path_12919" d="M219.691 6a1.012 1.012 0 0 1-1.023-1V1a1.023 1.023 0 0 1 2.045 0v4a1.012 1.012 0 0 1-1.022 1zm0 0" class="cls-1" data-name="Path 12919" transform="translate(-204.691)"/>
    </g>
</svg>
