<svg xmlns="http://www.w3.org/2000/svg" width="32.3" height="32.301" viewBox="0 0 32.3 32.301">
    <defs>
        <style>
            .cls-1{fill:#6353f4;stroke:#6353f4;stroke-width:.3px}
        </style>
    </defs>
    <g id="ic_client_classify" transform="translate(.15 .15)">
        <g id="Group_2646" data-name="Group 2646" transform="translate(0 17)">
            <g id="Group_2645" data-name="Group 2645">
                <path id="Path_10179" d="M28.48 280.249A4.685 4.685 0 0 0 25.438 272a4.738 4.738 0 0 0-4.75 4.687 4.629 4.629 0 0 0 1.68 3.564 6.676 6.676 0 0 0-1.678 1.225 6.6 6.6 0 0 0-1.647-1.227 4.688 4.688 0 1 0-6.085 0 6.6 6.6 0 0 0-1.642 1.223 6.55 6.55 0 0 0-1.646-1.224 4.688 4.688 0 1 0-6.1-.008A6.562 6.562 0 0 0 0 286.062a.937.937 0 0 0 .938.938h30.125a.937.937 0 0 0 .938-.937 6.569 6.569 0 0 0-3.521-5.814zm-21.855-6.374a2.812 2.812 0 1 1-2.812 2.812 2.816 2.816 0 0 1 2.812-2.812zm2.88 11.25H1.97a4.743 4.743 0 0 1 4.655-3.75 4.68 4.68 0 0 1 3.564 1.642 6.511 6.511 0 0 0-.689 2.108zm6.5-11.25a2.812 2.812 0 1 1-2.812 2.812A2.816 2.816 0 0 1 16 273.875zm-4.593 11.25a4.688 4.688 0 0 1 9.187 0zm14.031-11.25a2.812 2.812 0 1 1 0 5.625 2.813 2.813 0 1 1 0-5.625zm-2.943 11.25a6.51 6.51 0 0 0-.683-2.106 4.836 4.836 0 0 1 3.625-1.644 4.7 4.7 0 0 1 4.593 3.75z" class="cls-1" data-name="Path 10179" transform="translate(0 -272)"/>
            </g>
        </g>
        <g id="Group_2648" data-name="Group 2648" transform="translate(13.187 4.75)">
            <g id="Group_2647" data-name="Group 2647">
                <path id="Path_10180" d="M218.225 76.275a.937.937 0 0 0-1.326 0l-3.087 3.087-1.212-1.212a.937.937 0 1 0-1.326 1.326l1.875 1.875a.938.938 0 0 0 1.326 0l3.75-3.75a.938.938 0 0 0 0-1.326z" class="cls-1" data-name="Path 10180" transform="translate(-211 -76)"/>
            </g>
        </g>
        <g id="Group_2650" data-name="Group 2650" transform="translate(9.438)">
            <g id="Group_2649" data-name="Group 2649">
                <path id="Path_10181" d="M158.5 0a7.563 7.563 0 1 0 7.563 7.563A7.54 7.54 0 0 0 158.5 0zm0 13.25a5.688 5.688 0 0 1 0-11.375 5.764 5.764 0 0 1 5.688 5.688 5.764 5.764 0 0 1-5.688 5.687z" class="cls-1" data-name="Path 10181" transform="translate(-151)"/>
            </g>
        </g>
    </g>
</svg>
