<svg xmlns="http://www.w3.org/2000/svg" width="32.815" height="28.805" viewBox="0 0 32.815 28.805">
    <defs>
        <style>
            .cls-1{fill:#6353f4;stroke:#6353f4;stroke-width:.8px}
        </style>
    </defs>
    <g id="ic_gallery" transform="translate(.4 .404)">
        <g id="Group_3751" data-name="Group 3751">
            <g id="Group_3750" data-name="Group 3750">
                <path id="Path_12900" d="M177.253 159.668a3.259 3.259 0 1 0 3.264 3.259 3.261 3.261 0 0 0-3.264-3.259zm0 4.966a1.707 1.707 0 1 1 0-3.414 1.707 1.707 0 1 1 0 3.414z" class="cls-1" data-name="Path 12900" transform="translate(-161.048 -149.785)"/>
                <path id="Path_12901" d="M29.223 29.01L8.006 26.6a2.917 2.917 0 0 0-2.293.66 2.947 2.947 0 0 0-1.127 2.017L4.2 32.463H3a3.12 3.12 0 0 0-3 3.22v15.866a2.951 2.951 0 0 0 2.874 3.025h21.453a3.188 3.188 0 0 0 3.264-3.026v-.621a3.889 3.889 0 0 0 1.477-.621 3.219 3.219 0 0 0 1.127-2.095l1.788-15.751a3.144 3.144 0 0 0-2.76-3.45zm-3.186 22.54a1.635 1.635 0 0 1-1.71 1.474H2.993a1.4 1.4 0 0 1-1.439-1.355v-2.99l6.023-4.423a1.868 1.868 0 0 1 2.409.116l4.237 3.728a3.657 3.657 0 0 0 2.293.853 3.541 3.541 0 0 0 1.865-.5l7.655-4.423v7.526zm0-9.349l-8.471 4.927a1.984 1.984 0 0 1-2.293-.194L11 43.17a3.463 3.463 0 0 0-4.313-.155l-5.132 3.724V35.683a1.567 1.567 0 0 1 1.438-1.668h21.334a1.786 1.786 0 0 1 1.71 1.668zm4.393-9.947v.015l-1.83 15.75a1.318 1.318 0 0 1-.505 1.047c-.155.155-.505.233-.505.31V35.683a3.339 3.339 0 0 0-3.264-3.22H5.752l.35-3.026a1.784 1.784 0 0 1 .583-1.009 1.79 1.79 0 0 1 1.166-.31l21.178 2.444a1.552 1.552 0 0 1 1.4 1.691z" class="cls-1" data-name="Path 12901" transform="translate(0 -26.576)"/>
            </g>
        </g>
    </g>
</svg>
