<svg xmlns="http://www.w3.org/2000/svg" width="32.8" height="28.799" viewBox="0 0 32.8 28.799">
    <defs>
        <style>
            .cls-1,.cls-2{fill:#6353f4;stroke:#6353f4;stroke-linecap:round;stroke-linejoin:round}.cls-1{stroke-width:.8px}.cls-2{stroke-width:.2px}
        </style>
    </defs>
    <g id="ic_sms" transform="translate(.4 -4.434)">
        <path id="Path_12904" d="M3.86 32.833a5.358 5.358 0 0 1-1.753-.289l-1.266-.437.973-.919a5.072 5.072 0 0 0 1.634-3.671A12.96 12.96 0 0 1 0 18.833c0-7.719 7.177-14 16-14s16 6.281 16 14-7.178 14-16 14a17.855 17.855 0 0 1-7.527-1.646 8.428 8.428 0 0 1-4.613 1.646zm4.422-3.553l.467.236A16.167 16.167 0 0 0 16 31.209c7.925 0 14.373-5.552 14.373-12.376S23.925 6.457 16 6.457 1.626 12.009 1.626 18.833A11.386 11.386 0 0 0 4.85 26.64l.212.224.01.307a6.7 6.7 0 0 1-1.146 4.038 7.292 7.292 0 0 0 3.947-1.6z" class="cls-1" data-name="Path 12904"/>
        <path id="Path_12905" d="M16.94 37.732a6.163 6.163 0 0 1-1.455-.14 2.6 2.6 0 0 1-.774-.286c-.036-.036-.049-.117-.041-.246a2.57 2.57 0 0 1 .06-.4 1.829 1.829 0 0 1 .12-.366c.049-.106.1-.156.14-.146q.347.12.754.233a3.964 3.964 0 0 0 1.034.113 2.819 2.819 0 0 0 1.089-.186.67.67 0 0 0 .447-.666.855.855 0 0 0-.294-.673 3.67 3.67 0 0 0-1.055-.552 7.539 7.539 0 0 1-.781-.354 2.975 2.975 0 0 1-.648-.453 1.871 1.871 0 0 1-.441-.619 2.078 2.078 0 0 1-.161-.853 1.919 1.919 0 0 1 .154-.759 1.593 1.593 0 0 1 .474-.619 2.409 2.409 0 0 1 .821-.413 4.108 4.108 0 0 1 1.2-.153q.453 0 .754.02a4.955 4.955 0 0 1 .494.054 2.226 2.226 0 0 1 .314.073c.08.027.156.049.227.067s.094.1.094.233a1.77 1.77 0 0 1-.054.413 1.529 1.529 0 0 1-.146.386q-.094.167-.187.14-.227-.066-.621-.146a3.835 3.835 0 0 0-.768-.08 1.855 1.855 0 0 0-1.048.213.676.676 0 0 0-.287.573.729.729 0 0 0 .321.619 4.093 4.093 0 0 0 1 .473 4.327 4.327 0 0 1 1.6.979 1.965 1.965 0 0 1 .514 1.392 2.047 2.047 0 0 1-.24 1.04 1.8 1.8 0 0 1-.641.652 2.787 2.787 0 0 1-.914.34 5.589 5.589 0 0 1-1.055.097z" class="cls-2" data-name="Path 12905" transform="translate(-8.701 -15.07)"/>
        <path id="Path_12906" d="M35.74 37.938a.51.51 0 0 1-.367-.093.537.537 0 0 1-.087-.36v-4.662q-.534.866-.822 1.338l-.42.693a8.962 8.962 0 0 1-.161.259.135.135 0 0 0-.026.054c-.08.133-.136.22-.167.26a.238.238 0 0 1-.194.06h-.214a.31.31 0 0 1-.227-.06 1.6 1.6 0 0 1-.16-.26l-1.362-2.317v4.715a.528.528 0 0 1-.06.274q-.06.1-.314.1H30.6a.826.826 0 0 1-.327-.06c-.093-.04-.14-.17-.14-.393v-6.394a.464.464 0 0 1 .1-.353.427.427 0 0 1 .287-.086h.668a.667.667 0 0 1 .247.04.511.511 0 0 1 .207.2l1.775 2.824 1.776-2.8a.484.484 0 0 1 .194-.207.467.467 0 0 1 .22-.06h.735c.169 0 .266.035.294.106a1.073 1.073 0 0 1 .04.347v6.445a.615.615 0 0 1-.053.294c-.036.062-.138.093-.307.093z" class="cls-2" data-name="Path 12906" transform="translate(-17.875 -15.342)"/>
        <path id="Path_12907" d="M51.534 37.732a6.161 6.161 0 0 1-1.455-.14 2.6 2.6 0 0 1-.774-.286c-.036-.036-.049-.117-.041-.246a2.52 2.52 0 0 1 .06-.4 1.8 1.8 0 0 1 .12-.366c.048-.107.095-.156.14-.146q.347.12.754.233a3.942 3.942 0 0 0 1.034.113 2.821 2.821 0 0 0 1.089-.186.671.671 0 0 0 .448-.666.854.854 0 0 0-.295-.673 3.673 3.673 0 0 0-1.055-.552 7.579 7.579 0 0 1-.781-.354 2.988 2.988 0 0 1-.648-.453 1.876 1.876 0 0 1-.44-.619 2.073 2.073 0 0 1-.161-.853 1.926 1.926 0 0 1 .153-.759 1.6 1.6 0 0 1 .474-.619 2.407 2.407 0 0 1 .821-.413 4.114 4.114 0 0 1 1.2-.153q.454 0 .754.02c.2.013.364.031.495.054a2.254 2.254 0 0 1 .314.073c.08.026.156.049.227.067s.093.1.093.233a1.75 1.75 0 0 1-.054.413 1.529 1.529 0 0 1-.146.386q-.094.167-.188.14a8.087 8.087 0 0 0-.62-.146 3.838 3.838 0 0 0-.768-.08 1.854 1.854 0 0 0-1.048.213.677.677 0 0 0-.288.573.729.729 0 0 0 .321.619 4.086 4.086 0 0 0 1 .473 4.33 4.33 0 0 1 1.6.979 1.965 1.965 0 0 1 .514 1.392 2.047 2.047 0 0 1-.24 1.04 1.8 1.8 0 0 1-.641.652 2.787 2.787 0 0 1-.914.34 5.591 5.591 0 0 1-1.054.097z" class="cls-2" data-name="Path 12907" transform="translate(-29.223 -15.07)"/>
    </g>
</svg>
