<svg xmlns="http://www.w3.org/2000/svg" id="female_avatar" width="54" height="54" data-name="female avatar" viewBox="0 0 54 54">
    <defs>
        <clipPath id="clip-path">
            <circle id="Mask" cx="27" cy="27" r="27" fill="url(#linear-gradient)"/>
        </clipPath>
        <clipPath id="clip-path-2">
            <path id="Mask-2" d="M35.162 8.655c1.322 2.524 1.983 11.721 1.983 11.721H0s.661-9.2 1.983-11.721C3.967 4.869 18.573 0 18.573 0s14.605 4.869 16.589 8.655z" class="cls-2" data-name="Mask"/>
        </clipPath>
        <clipPath id="clip-path-3">
            <path id="Mask-3" d="M-60.294 4.455C-61.016 1.3-57.6-1.122-54.073.54c8.295 3.915 3.36 9.377.295 9.017s-5.795-1.947-6.516-5.102z" class="cls-3" data-name="Mask" transform="translate(60.391)"/>
        </clipPath>
        <linearGradient id="linear-gradient" x1=".5" x2=".5" y1="1" gradientUnits="objectBoundingBox">
            <stop offset="0" stop-color="#ffc9b3"/>
            <stop offset="1" stop-color="#ffd2c2"/>
        </linearGradient>
        <linearGradient id="linear-gradient-2" x1=".5" x2=".5" y2="1" gradientUnits="objectBoundingBox">
            <stop offset="0" stop-color="#cccfe3"/>
            <stop offset="1" stop-color="#8f94ba"/>
        </linearGradient>
        <style>
            .cls-2{fill:#fff}.cls-3{fill:#5d4c61}
        </style>
    </defs>
    <circle id="mask-4" cx="27" cy="27" r="27" class="cls-2" data-name="mask"/>
    <g id="avatar" clip-path="url(#clip-path)">
        <g id="body" transform="translate(8.425 34.882)">
            <path id="Mask-5" fill="url(#linear-gradient-2)" d="M35.162 8.655c1.322 2.524 1.983 11.721 1.983 11.721H0s.661-9.2 1.983-11.721C3.967 4.869 18.573 0 18.573 0s14.605 4.869 16.589 8.655z" data-name="Mask"/>
            <g id="body-2" clip-path="url(#clip-path-2)" data-name="body">
                <path id="Combined_Shape" d="M36.063 15.507a1.082 1.082 0 1 1 1.082 1.082 1.082 1.082 0 0 1-1.082-1.082zm-7.213 0a1.082 1.082 0 1 1 1.082 1.082 1.082 1.082 0 0 1-1.081-1.082zm-7.213 0a1.082 1.082 0 1 1 1.082 1.082 1.082 1.082 0 0 1-1.081-1.082zm-7.213 0a1.082 1.082 0 1 1 1.082 1.082 1.082 1.082 0 0 1-1.081-1.082zm-7.213 0a1.082 1.082 0 1 1 1.082 1.082 1.082 1.082 0 0 1-1.08-1.082zm-7.211 0a1.082 1.082 0 1 1 1.082 1.082A1.082 1.082 0 0 1 0 15.507zM32.457 11.9a1.082 1.082 0 1 1 1.082 1.082 1.082 1.082 0 0 1-1.082-1.082zm-7.213 0a1.082 1.082 0 1 1 1.082 1.082 1.082 1.082 0 0 1-1.081-1.082zm-7.213 0a1.082 1.082 0 1 1 1.082 1.082 1.082 1.082 0 0 1-1.081-1.082zm-7.213 0a1.082 1.082 0 1 1 1.082 1.083 1.082 1.082 0 0 1-1.081-1.083zm-7.213 0a1.082 1.082 0 1 1 1.082 1.082A1.082 1.082 0 0 1 3.606 11.9zm32.458-3.605a1.082 1.082 0 1 1 1.082 1.082 1.082 1.082 0 0 1-1.082-1.082zm-7.213 0a1.082 1.082 0 1 1 1.082 1.082 1.082 1.082 0 0 1-1.081-1.082zm-7.213 0a1.082 1.082 0 1 1 1.083 1.082 1.082 1.082 0 0 1-1.082-1.082zm-7.213 0a1.082 1.082 0 1 1 1.082 1.082 1.082 1.082 0 0 1-1.081-1.082zm-7.213 0a1.082 1.082 0 1 1 1.084 1.082 1.082 1.082 0 0 1-1.082-1.082zM0 8.295a1.082 1.082 0 1 1 1.082 1.082A1.082 1.082 0 0 1 0 8.295zm32.457-3.607a1.082 1.082 0 1 1 1.082 1.082 1.082 1.082 0 0 1-1.082-1.082zm-7.213 0a1.082 1.082 0 1 1 1.082 1.082 1.082 1.082 0 0 1-1.081-1.082zm-7.213 0a1.082 1.082 0 1 1 1.083 1.082 1.082 1.082 0 0 1-1.082-1.082zm-7.213 0A1.082 1.082 0 1 1 11.9 5.77a1.082 1.082 0 0 1-1.081-1.082zm-7.213 0A1.082 1.082 0 1 1 4.688 5.77a1.082 1.082 0 0 1-1.082-1.082zm32.458-3.606a1.082 1.082 0 1 1 1.082 1.082 1.082 1.082 0 0 1-1.082-1.082zm-7.213 0a1.082 1.082 0 1 1 1.082 1.082 1.082 1.082 0 0 1-1.081-1.082zm-21.638 0a1.082 1.082 0 1 1 1.083 1.082 1.082 1.082 0 0 1-1.082-1.082zM0 1.082a1.082 1.082 0 1 1 1.082 1.082A1.082 1.082 0 0 1 0 1.082z" class="cls-2" data-name="Combined Shape" transform="translate(-.541 3.246)"/>
            </g>
        </g>
        <g id="bun" transform="translate(28.86 4.769)">
            <path id="Mask-6" d="M-60.294 4.455C-61.016 1.3-57.6-1.122-54.073.54c8.295 3.915 3.36 9.377.295 9.017s-5.795-1.947-6.516-5.102z" class="cls-3" data-name="Mask" transform="translate(60.391)"/>
            <g id="bun-2" clip-path="url(#clip-path-3)" data-name="bun">
                <path id="Path_3" fill="#5d4c61" d="M0 0s6.131 3.967 7.663 1.8c.158.9-.569 3.456-1.713 3.426C2.529 5.14 0 0 0 0z" data-name="Path 3" opacity="0.6" transform="translate(3.097 4.959)"/>
            </g>
        </g>
        <path id="Path" d="M4.211 2.777c2.88 7.2 1.26 10.71-.99 14.94s.54 8.19.54 8.19a8.042 8.042 0 0 1-3.24-6.66c0-4.59 3.24-7.47.54-11.25s.27-12.42 3.15-5.22z" class="cls-3" transform="translate(33.478 10.08)"/>
        <path id="hair" d="M18.471 21.709C14.6 23.57 14.032 23.47 5.489 16.48-7.4 5.931 4.767-3.716 17.84 1.423c14.16 6.221 9.413 16.067.631 20.286z" class="cls-3" transform="translate(12.494 7.403)"/>
        <path id="face" fill="#f8b58e" d="M14.768 20.286c-1.322 2.164-7.333 2.164-8.655 0v-3.607s-.588.017-.992 0C.9 16.5-.506 9.714.156 2.928.64-2.042 4.85 4.778 11.7 0c-.27 5.229 1.983 4.688 2.975 4.057 4.508-2.074 4.546 6.427.09 5.77z" transform="translate(16.558 16.218)"/>
        <path id="shade" fill="#db6f3d" d="M.057 2.51C2.5 2.414 6.213 0 6.213 0A8.337 8.337 0 0 1 0 4.131z" opacity="0.4" transform="rotate(-2 879.344 -628.172)"/>
        <path id="collar" d="M11.18 1.165V0a4.142 4.142 0 0 1 1.765 1.443A2.963 2.963 0 0 1 10.993 6.4a5.1 5.1 0 0 1-4.141-2.718A5.1 5.1 0 0 1 2.712 6.4 2.963 2.963 0 0 1 .76 1.443 4.142 4.142 0 0 1 2.524 0v1.165c0 1.379 3.018 2.017 4.322 2.076 1.234-.059 4.334-.697 4.334-2.076z" class="cls-2" transform="translate(20.145 34.882)"/>
    </g>
</svg>
