<svg xmlns="http://www.w3.org/2000/svg" id="ic_address" width="18" height="22" viewBox="0 0 18 22">
    <path id="ic_address-2" fill="#4f2da7" d="M9 22a.885.885 0 0 1-.5-.154c-.078-.053-.2-.143-.376-.268-.284-.208-.6-.456-.952-.737a28.263 28.263 0 0 1-2.872-2.68C1.445 15.1 0 12.069 0 9.166A9.1 9.1 0 0 1 9 0a9.1 9.1 0 0 1 9 9.166c0 2.9-1.445 5.93-4.3 8.995a28.14 28.14 0 0 1-2.877 2.68c-.319.259-.64.507-.952.737-.2.149-.326.234-.373.266A.89.89 0 0 1 9 22zM9 1.833a7.276 7.276 0 0 0-7.2 7.333c0 2.419 1.28 5.021 3.8 7.734a26.293 26.293 0 0 0 2.7 2.506c.235.191.472.377.7.552.234-.176.471-.362.7-.552a26.293 26.293 0 0 0 2.7-2.506c2.524-2.713 3.8-5.315 3.8-7.734A7.276 7.276 0 0 0 9 1.833zm0 11a3.667 3.667 0 1 1 3.6-3.667A3.638 3.638 0 0 1 9 12.834zm0-5.5a1.833 1.833 0 1 0 1.8 1.833A1.819 1.819 0 0 0 9 7.333z" data-name="ic_address"/>
</svg>
