<svg xmlns="http://www.w3.org/2000/svg" id="ic_add_photo" width="24" height="24" viewBox="0 0 24 24">
    <defs>
        <style>
            .cls-2{fill:#fff}
        </style>
    </defs>
    <g id="ic_add_photo-2">
        <path id="Path_1" d="M12 16.85A3.85 3.85 0 1 1 15.85 13 3.854 3.854 0 0 1 12 16.85zm0-6A2.15 2.15 0 1 0 14.15 13 2.152 2.152 0 0 0 12 10.85z" class="cls-2"/>
        <path id="Path_2" d="M19 20.85H5A2.854 2.854 0 0 1 2.15 18V9A2.854 2.854 0 0 1 5 6.15h2A1.151 1.151 0 0 0 8.15 5 1.852 1.852 0 0 1 10 3.15h2a.85.85 0 1 1 0 1.7h-2a.15.15 0 0 0-.15.15A2.854 2.854 0 0 1 7 7.85H5A1.151 1.151 0 0 0 3.85 9v9A1.151 1.151 0 0 0 5 19.15h14A1.151 1.151 0 0 0 20.15 18v-7a.85.85 0 0 1 1.7 0v7A2.854 2.854 0 0 1 19 20.85z" class="cls-2"/>
        <path id="Path_3" d="M21 6.85h-6a.85.85 0 1 1 0-1.7h6a.85.85 0 1 1 0 1.7z" class="cls-2"/>
        <path id="Path_4" d="M18 9.85a.85.85 0 0 1-.85-.85V3a.85.85 0 0 1 1.7 0v6a.85.85 0 0 1-.85.85z" class="cls-2"/>
    </g>
</svg>
