<svg xmlns="http://www.w3.org/2000/svg" id="ic_add_photo" width="26" height="22" viewBox="0 0 26 22">
    <defs>
        <style>
            .cls-1{fill:#fff}
        </style>
    </defs>
    <g id="Group_3751" data-name="Group 3751">
        <path id="Path_12883" d="M24.985 40.916a3.381 3.381 0 0 0-2.451-.992H19.5l-.691-1.8a2.718 2.718 0 0 0-2.343-1.587H9.533a2.451 2.451 0 0 0-1.4.469 2.469 2.469 0 0 0-.941 1.117l-.691 1.8H3.467a3.381 3.381 0 0 0-2.451.992A3.223 3.223 0 0 0 0 43.309v11.846a3.222 3.222 0 0 0 1.016 2.393 3.381 3.381 0 0 0 2.451.992h19.066a3.381 3.381 0 0 0 2.451-.992A3.222 3.222 0 0 0 26 55.155V43.309a3.222 3.222 0 0 0-1.015-2.393zm-7.7 12.5A5.914 5.914 0 0 1 13 55.156a5.914 5.914 0 0 1-4.286-1.739 5.807 5.807 0 0 1 0-8.369A5.914 5.914 0 0 1 13 43.31a5.915 5.915 0 0 1 4.286 1.739 5.807 5.807 0 0 1 0 8.369z" class="cls-1" data-name="Path 12883" transform="translate(0 -36.54)"/>
        <path id="Path_12884" d="M195.756 228.4a3.8 3.8 0 0 0-2.756 1.12 3.735 3.735 0 0 0 0 5.381 3.958 3.958 0 0 0 5.512 0 3.735 3.735 0 0 0 0-5.381 3.8 3.8 0 0 0-2.756-1.12z" class="cls-1" data-name="Path 12884" transform="translate(-182.756 -219.518)"/>
    </g>
</svg>
