<svg xmlns="http://www.w3.org/2000/svg" width="24" height="24" viewBox="0 0 24 24">
    <g id="prefix__ic_clients" transform="translate(-22 -105) translate(22 105)">
        <g id="prefix__ic_clients-2" data-name="ic_clients">
            <path id="prefix__ic_clients-3" fill="#4f2da7" d="M17 20a1 1 0 0 1-1-1v-2a3 3 0 0 0-3-3H5a3 3 0 0 0-3 3v2a1 1 0 0 1-2 0v-2a5.006 5.006 0 0 1 5-5h8a5.006 5.006 0 0 1 5 5v2a1 1 0 0 1-1 1zM9 10a5 5 0 1 1 5-5 5.006 5.006 0 0 1-5 5zm0-8a3 3 0 1 0 3 3 3 3 0 0 0-3-3z" data-name="ic_clients" transform="translate(3 2)"/>
        </g>
    </g>
</svg>
