<svg xmlns="http://www.w3.org/2000/svg" width="20" height="16" viewBox="0 0 20 16">
    <g id="ic_photo" transform="translate(-268 -59)">
        <path id="ic_photo-2" fill="#fff" d="M17.5 16h-15A2.454 2.454 0 0 1 0 13.6V4.8a2.454 2.454 0 0 1 2.5-2.4h2.887L6.806.356A.845.845 0 0 1 7.5 0h5a.842.842 0 0 1 .693.356l1.42 2.044H17.5A2.455 2.455 0 0 1 20 4.8v8.8a2.454 2.454 0 0 1-2.5 2.4zM2.5 4a.818.818 0 0 0-.833.8v8.8a.818.818 0 0 0 .833.8h15a.818.818 0 0 0 .833-.8V4.8A.818.818 0 0 0 17.5 4h-3.333a.843.843 0 0 1-.694-.356L12.054 1.6H7.946l-1.42 2.044A.842.842 0 0 1 5.833 4zm7.5 8.8a4.09 4.09 0 0 1-4.166-4A4.09 4.09 0 0 1 10 4.8a4.09 4.09 0 0 1 4.167 4 4.091 4.091 0 0 1-4.167 4zm0-6.4a2.454 2.454 0 0 0-2.5 2.4 2.5 2.5 0 0 0 5 0A2.454 2.454 0 0 0 10 6.4z" data-name="ic_photo" transform="translate(268 59)"/>
    </g>
</svg>
