<svg xmlns="http://www.w3.org/2000/svg" width="16" height="16" viewBox="0 0 16 16">
    <g>
        <path fill="#fff" d="M-1244.038-4002.354a1.946 1.946 0 0 1-1.047-2.488l2.065-5.392-2.095-5.391a1.947 1.947 0 0 1 .048-1.535 1.945 1.945 0 0 1 1.086-.972 1.841 1.841 0 0 1 1.416.126l12.266 6.053a1.939 1.939 0 0 1 .863.885 1.944 1.944 0 0 1-.863 2.555l-12.266 6.1a1.856 1.856 0 0 1-.815.194 1.848 1.848 0 0 1-.658-.135zm.378-1.9a.331.331 0 0 0 0 .252.274.274 0 0 0 .174.156.262.262 0 0 0 .224 0l11.228-5.587-9.609-.01zm.088-12.368a.313.313 0 0 0-.088.35l2.017 5.227h9.62l-11.229-5.577a.262.262 0 0 0-.16-.054.262.262 0 0 0-.16.059z" transform="translate(-1.751 -1.781) translate(1247 4020)"/>
    </g>
</svg>
