<svg xmlns="http://www.w3.org/2000/svg" width="72" height="15" viewBox="0 0 72 15">
    <defs>
        <linearGradient id="linear-gradient" x1=".5" x2=".5" y2="1" gradientUnits="objectBoundingBox">
            <stop offset="0" stop-color="#6e2cdb"/>
            <stop offset="1" stop-color="#4f2da7"/>
        </linearGradient>
        <style>
            .cls-1{fill:#4f2da7}.cls-2{fill:url(#linear-gradient)}
        </style>
    </defs>
    <g id="logo" transform="translate(-173 -673)">
        <g id="font_logo" transform="translate(-21.931 424.833)">
            <g id="Group_47" transform="translate(216.931 250.167)">
                <path id="Path_47" d="M150.422 96.484a3.51 3.51 0 0 1-2.495-1.012 3.3 3.3 0 0 1-1.027-2.429v-7.518a.909.909 0 0 1 .264-.665.937.937 0 0 1 .675-.26.987.987 0 0 1 .675.26.909.909 0 0 1 .264.665v7.518a1.516 1.516 0 0 0 .47 1.128 1.563 1.563 0 0 0 1.145.463h5.781a.937.937 0 0 1 .675.26.97.97 0 0 1 0 1.33.937.937 0 0 1-.675.26z" class="cls-1" transform="translate(-146.9 -84.542)"/>
                <path id="Path_48" d="M191.264 96.153a.909.909 0 0 1-.264-.665V85.425a.909.909 0 0 1 .264-.665 1.006 1.006 0 0 1 1.35 0 .909.909 0 0 1 .264.665v10.063a.957.957 0 0 1-.264.665 1.006 1.006 0 0 1-1.35 0z" class="cls-1" transform="translate(-178.058 -84.471)"/>
                <path id="Path_49" d="M209.678 89.6a5.257 5.257 0 0 1 3.258 1.012 2.972 2.972 0 0 1 1.321 2.458 3.01 3.01 0 0 1-1.321 2.458 5.256 5.256 0 0 1-3.258 1.012h-.029a4.873 4.873 0 0 1-1.115-.116.9.9 0 0 1-.616-.4.849.849 0 0 1-.147-.694.836.836 0 0 1 .411-.578.882.882 0 0 1 .7-.145 3.694 3.694 0 0 0 .792.087 3.451 3.451 0 0 0 1.937-.52 1.132 1.132 0 0 0 0-2.14 5.2 5.2 0 0 0-1.526-.463 5.8 5.8 0 0 0-.734-.058 5.157 5.157 0 0 1-2.935-.983 2.972 2.972 0 0 1-1.316-2.46 3.01 3.01 0 0 1 1.321-2.458 5.257 5.257 0 0 1 3.258-1.012h.029a5.825 5.825 0 0 1 4.226 1.735.909.909 0 0 1 .266.665.957.957 0 0 1-.264.665.937.937 0 0 1-.675.26.987.987 0 0 1-.675-.26 4 4 0 0 0-2.935-1.186h-.029a3.451 3.451 0 0 0-1.937.52 1.132 1.132 0 0 0 0 2.14 4.405 4.405 0 0 0 2 .463zm-2.612 4.106a.8.8 0 0 1 .323.636.858.858 0 0 1-.205.694.936.936 0 0 1-.734.347.854.854 0 0 1-.587-.2 3.124 3.124 0 0 1-.47-.4.909.909 0 0 1-.264-.665.957.957 0 0 1 .264-.665.937.937 0 0 1 .675-.26.988.988 0 0 1 .675.26 3.1 3.1 0 0 0 .323.255z" class="cls-1" transform="translate(-188.02 -84.542)"/>
                <path id="Path_50" d="M251.152 84.5a.937.937 0 0 1 .675.26.909.909 0 0 1 .264.665.957.957 0 0 1-.264.665.937.937 0 0 1-.675.26h-1.291a2.792 2.792 0 0 0-2.025.839 2.711 2.711 0 0 0-.851 2v6.275a.909.909 0 0 1-.264.665 1.005 1.005 0 0 1-1.35 0 .909.909 0 0 1-.264-.665v-6.28a4.547 4.547 0 0 1 .968-2.834h-5.136a.937.937 0 0 1-.675-.26.969.969 0 0 1 0-1.33.937.937 0 0 1 .675-.26z" class="cls-1" transform="translate(-212.678 -84.471)"/>
                <path id="Path_51" d="M288.212 95.012a.878.878 0 0 1-.411 1.214 1.049 1.049 0 0 1-.411.087.9.9 0 0 1-.851-.52l-1.379-2.747a11.438 11.438 0 0 0-5.312 1.561 8.427 8.427 0 0 0-1.908 1.417.876.876 0 0 1-.7.289.828.828 0 0 1-.528-.173.906.906 0 0 1-.323-1.157l5.077-10.063a.871.871 0 0 1 .851-.52.9.9 0 0 1 .851.52l2.025 4.019a.822.822 0 0 1 .029.694.968.968 0 0 1-.47.549.863.863 0 0 1-.7.058.975.975 0 0 1-.558-.463l-1.174-2.371-2.583 5.118a13.369 13.369 0 0 1 5.987-1.388h.205l.059.029h.029l.059.029.029.029a.1.1 0 0 1 .059.029l.029.029.029.029.029.029.029.029.029.029.029.029.029.029.029.029.029.029.029.029.029.029.029.058z" class="cls-1" transform="translate(-238.322 -84.4)"/>
            </g>
        </g>
        <g id="ic_logo" transform="translate(173 673)">
            <path id="Path_5" d="M1665.406 1516.549l-3.234 6.45a.344.344 0 0 0 .323.491h6.364a.344.344 0 0 0 .325-.487l-3.13-6.45a.366.366 0 0 0-.648-.004z" class="cls-2" transform="translate(-1659.057 -1516.354)"/>
            <path id="Path_6" d="M1586.066 1744.137l5.346-.014a.341.341 0 0 1 .179.641l-7.363 4.033a.352.352 0 0 1-.5-.446l2.017-4.019a.36.36 0 0 1 .321-.195z" class="cls-2" transform="translate(-1583.69 -1735.567)"/>
            <path id="Path_7" d="M1628.568 1760.178l2.505 5.161a.344.344 0 0 1-.325.487l-11.917-.016a.341.341 0 0 1-.177-.641l9.412-5.146a.365.365 0 0 1 .502.155z" class="cls-2" transform="translate(-1617.106 -1750.827)"/>
        </g>
    </g>
</svg>
