<svg xmlns="http://www.w3.org/2000/svg" width="68" height="14" viewBox="0 0 68 14">
    <defs>
        <style>
            .cls-1{fill:#fff}
        </style>
    </defs>
    <g id="logo" transform="translate(-197 -249)">
        <g id="Group_8" data-name="Group 8" transform="translate(197 249)">
            <path id="Path_5" d="M1665.149 1516.536l-2.979 6.02a.321.321 0 0 0 .3.458h5.862a.321.321 0 0 0 .3-.455l-2.884-6.02a.335.335 0 0 0-.599-.003z" class="cls-1" data-name="Path 5" transform="translate(-1659.3 -1516.354)"/>
            <path id="Path_6" d="M1585.879 1744.136l4.924-.013a.319.319 0 0 1 .165.6l-6.783 3.764a.326.326 0 0 1-.462-.416l1.858-3.751a.331.331 0 0 1 .298-.184z" class="cls-1" data-name="Path 6" transform="translate(-1583.69 -1736.137)"/>
            <path id="Path_7" d="M1627.772 1760.165l2.308 4.818a.321.321 0 0 1-.3.455l-10.977-.014a.319.319 0 0 1-.163-.6l8.67-4.8a.335.335 0 0 1 .462.141z" class="cls-1" data-name="Path 7" transform="translate(-1617.214 -1751.437)"/>
        </g>
        <g id="Group_47" data-name="Group 47" transform="translate(216.931 250.167)">
            <path id="Path_47" d="M150.286 96.211a3.346 3.346 0 0 1-2.4-.989 3.245 3.245 0 0 1-.987-2.373V85.5a.87.87 0 0 1 .9-.9.941.941 0 0 1 .649.254.9.9 0 0 1 .254.65v7.345a1.542 1.542 0 0 0 1.552 1.554h5.558a.9.9 0 1 1 0 1.808z" class="cls-1" data-name="Path 47" transform="translate(-146.9 -84.543)"/>
            <path id="Path_48" d="M191.254 95.885a.9.9 0 0 1-.254-.65V85.4a.9.9 0 1 1 1.806 0v9.831a.944.944 0 0 1-.254.65.955.955 0 0 1-1.3 0z" class="cls-1" data-name="Path 48" transform="translate(-178.558 -84.472)"/>
            <path id="Path_49" d="M209.5 89.487a5 5 0 0 1 3.132.989 2.917 2.917 0 0 1 1.27 2.4 2.955 2.955 0 0 1-1.27 2.4 5 5 0 0 1-3.132.989h-.028a4.612 4.612 0 0 1-1.072-.113.869.869 0 0 1-.592-.4.84.84 0 0 1-.141-.678.817.817 0 0 1 .4-.565.837.837 0 0 1 .677-.141 3.5 3.5 0 0 0 .762.085 3.278 3.278 0 0 0 1.862-.509 1.112 1.112 0 0 0 0-2.091 4.941 4.941 0 0 0-1.467-.452 5.488 5.488 0 0 0-.705-.057 4.906 4.906 0 0 1-2.821-.961 2.917 2.917 0 0 1-1.27-2.4 2.955 2.955 0 0 1 1.27-2.4 5 5 0 0 1 3.125-.983h.028a5.555 5.555 0 0 1 4.063 1.7.9.9 0 0 1 .254.65.943.943 0 0 1-.254.65.893.893 0 0 1-.649.254.941.941 0 0 1-.649-.254 3.809 3.809 0 0 0-2.821-1.158h-.028a3.278 3.278 0 0 0-1.862.509 1.112 1.112 0 0 0 0 2.091 4.18 4.18 0 0 0 1.919.452zm-2.51 4.013a.79.79 0 0 1 .31.622.848.848 0 0 1-.2.678.894.894 0 0 1-.705.339.813.813 0 0 1-.564-.2 3.02 3.02 0 0 1-.451-.4.9.9 0 0 1-.254-.65.943.943 0 0 1 .254-.65.893.893 0 0 1 .649-.254.941.941 0 0 1 .649.254 3 3 0 0 0 .312.261z" class="cls-1" data-name="Path 49" transform="translate(-188.68 -84.544)"/>
            <path id="Path_50" d="M250.721 84.5a.87.87 0 0 1 .9.9.944.944 0 0 1-.254.65.893.893 0 0 1-.649.254h-1.238a2.8 2.8 0 0 0-2.765 2.769v6.13a.9.9 0 1 1-1.806 0v-6.13a4.488 4.488 0 0 1 .931-2.769h-4.94a.9.9 0 1 1 0-1.808z" class="cls-1" data-name="Path 50" transform="translate(-213.733 -84.472)"/>
            <path id="Path_51" d="M287.752 94.768a.821.821 0 0 1 .056.678.811.811 0 0 1-.451.509 1 1 0 0 1-.4.085.862.862 0 0 1-.818-.509l-1.326-2.684a10.867 10.867 0 0 0-5.107 1.526 8.113 8.113 0 0 0-1.834 1.384.836.836 0 0 1-.677.282.787.787 0 0 1-.508-.17.915.915 0 0 1-.367-.509.934.934 0 0 1 .056-.622l4.881-9.831a.836.836 0 0 1 .818-.509.862.862 0 0 1 .818.509l1.947 3.927a.815.815 0 0 1 .028.678.941.941 0 0 1-.451.537.817.817 0 0 1-.677.057.941.941 0 0 1-.536-.452l-1.129-2.317-2.483 5a12.684 12.684 0 0 1 5.756-1.356h.2l.056.028h.028l.056.028.028.028a.1.1 0 0 1 .056.028l.028.028.028.028.028.028.028.028.028.028.028.028.028.028.028.028.028.028.028.028.028.028.028.056z" class="cls-1" data-name="Path 51" transform="translate(-239.789 -84.4)"/>
        </g>
    </g>
</svg>
