<svg xmlns="http://www.w3.org/2000/svg" width="15" height="18" viewBox="0 0 15 18">
    <path id="ic_address" fill="#4f2da7" d="M7.5 18a.747.747 0 0 1-.416-.126c-.065-.043-.17-.117-.313-.219-.237-.171-.5-.373-.793-.6a23.389 23.389 0 0 1-2.4-2.192C1.2 12.351 0 9.875 0 7.5a7.5 7.5 0 0 1 15 0c0 2.375-1.2 4.852-3.58 7.359a23.287 23.287 0 0 1-2.4 2.192c-.266.212-.533.415-.793.6-.169.122-.272.192-.311.218A.752.752 0 0 1 7.5 18zm0-16.5a6.007 6.007 0 0 0-6 6c0 1.979 1.066 4.108 3.17 6.328a21.759 21.759 0 0 0 2.243 2.05c.2.157.394.309.587.452.195-.144.393-.3.587-.452a21.759 21.759 0 0 0 2.243-2.05c2.1-2.219 3.17-4.348 3.17-6.328a6.007 6.007 0 0 0-6-6zm0 9a3 3 0 1 1 3-3 3 3 0 0 1-3 3zm0-4.5A1.5 1.5 0 1 0 9 7.5 1.5 1.5 0 0 0 7.5 6z"/>
</svg>
