<svg xmlns="http://www.w3.org/2000/svg" width="15" height="19" fill="none" viewBox="0 0 15 19">
    <path fill="#fff" d="M.05 10.165a7.133 7.133 0 0 1 .247-2.874C1.184 4.31 3.968 2.116 7.27 2.078V.128c0-.108.138-.166.228-.1l4.072 2.947c.067.05.067.15 0 .197L7.503 6.12c-.094.065-.228.007-.228-.101V4.073a5.331 5.331 0 0 0-4.822 3.218A5.112 5.112 0 0 0 2.04 9.59a5.183 5.183 0 0 0 1.163 2.99.988.988 0 0 1-.193 1.43 1.032 1.032 0 0 1-1.406-.193 7.096 7.096 0 0 1-1.555-3.65zm11.757-3.744a5.12 5.12 0 0 1 .75 5.288 5.325 5.325 0 0 1-4.822 3.218V12.98c0-.108-.138-.166-.228-.1l-4.073 2.947c-.066.05-.066.15 0 .197l4.069 2.947c.094.066.228.008.228-.1v-1.95c3.302-.035 6.09-2.228 6.974-5.213a7.203 7.203 0 0 0 .248-2.874A7.059 7.059 0 0 0 13.4 5.184a1.033 1.033 0 0 0-1.406-.194.99.99 0 0 0-.188 1.431z"/>
</svg>
