<svg xmlns="http://www.w3.org/2000/svg" width="120" height="120" viewBox="0 0 120 120">
    <defs>
        <filter id="SVGCleanerId_0_1_" width="120" height="120" x="0" y="0" filterUnits="userSpaceOnUse">
            <feOffset/>
            <feGaussianBlur result="blur" stdDeviation="5"/>
            <feFlood flood-color="#fff"/>
            <feComposite in2="blur" operator="in"/>
            <feComposite in="SourceGraphic"/>
        </filter>
        <filter id="SVGCleanerId_0_1_2" width="120" height="120" x="0" y="0" filterUnits="userSpaceOnUse">
            <feOffset/>
            <feGaussianBlur result="blur-2" stdDeviation="5"/>
            <feFlood flood-color="#fff"/>
            <feComposite in2="blur-2" operator="in"/>
            <feComposite in="SourceGraphic"/>
        </filter>
        <filter id="SVGCleanerId_0_1_3" width="120" height="120" x="0" y="0" filterUnits="userSpaceOnUse">
            <feOffset/>
            <feGaussianBlur result="blur-3" stdDeviation="5"/>
            <feFlood flood-color="#fff"/>
            <feComposite in2="blur-3" operator="in"/>
            <feComposite in="SourceGraphic"/>
        </filter>
        <style>
            .cls-2{fill:#fff}
        </style>
    </defs>
    <g id="shine_star" opacity="0.7">
        <g filter="url(#SVGCleanerId_0_1_)" transform="rotate(180 152.5 117.5) rotate(180 152.5 117.5)">
            <path id="SVGCleanerId_0_1_4" d="M253.96 95.305a62.011 62.011 0 0 1-8.281-2c-19.2-6.117-30.058-20.977-33.63-40.107a1.767 1.767 0 0 0-3.439 0c-4.151 22.229-17.965 37.95-41.794 42.138a1.641 1.641 0 0 0 0 3.252c23.608 4.136 37.665 19.826 41.8 41.879a1.765 1.765 0 0 0 3.438 0c2.107-11.372 8.019-26.822 24.23-35.842a56.1 56.1 0 0 1 17.678-6.059 1.64 1.64 0 0 0 0-3.253z" class="cls-2" data-name="SVGCleanerId_0_1_" transform="rotate(180 135.195 78.42)"/>
        </g>
        <g filter="url(#SVGCleanerId_0_1_2)" transform="rotate(180 152.5 117.5) rotate(180 152.5 117.5)">
            <path id="SVGCleanerId_0_1_5" d="M253.96 95.305a62.011 62.011 0 0 1-8.281-2c-19.2-6.117-30.058-20.977-33.63-40.107a1.767 1.767 0 0 0-3.439 0c-4.151 22.229-17.965 37.95-41.794 42.138a1.641 1.641 0 0 0 0 3.252c23.608 4.136 37.665 19.826 41.8 41.879a1.765 1.765 0 0 0 3.438 0c2.107-11.372 8.019-26.822 24.23-35.842a56.1 56.1 0 0 1 17.678-6.059 1.64 1.64 0 0 0 0-3.253z" class="cls-2" data-name="SVGCleanerId_0_1_" transform="rotate(180 135.195 78.42)"/>
        </g>
        <g filter="url(#SVGCleanerId_0_1_3)" transform="rotate(180 152.5 117.5) rotate(180 152.5 117.5)">
            <path id="SVGCleanerId_0_1_6" d="M253.96 95.305a62.011 62.011 0 0 1-8.281-2c-19.2-6.117-30.058-20.977-33.63-40.107a1.767 1.767 0 0 0-3.439 0c-4.151 22.229-17.965 37.95-41.794 42.138a1.641 1.641 0 0 0 0 3.252c23.608 4.136 37.665 19.826 41.8 41.879a1.765 1.765 0 0 0 3.438 0c2.107-11.372 8.019-26.822 24.23-35.842a56.1 56.1 0 0 1 17.678-6.059 1.64 1.64 0 0 0 0-3.253z" class="cls-2" data-name="SVGCleanerId_0_1_" transform="rotate(180 135.195 78.42)"/>
        </g>
    </g>
</svg>
