<svg xmlns="http://www.w3.org/2000/svg" width="40" height="40.001" viewBox="0 0 40 40.001">
    <defs>
        <style>
            .cls-1{fill:#fff}
        </style>
    </defs>
    <g id="ic_facebook" transform="translate(-1440 -7484)">
        <path id="Facebook" d="M27.99 7.989a20 20 0 1 0 20 20 20.022 20.022 0 0 0-20-20zm5.653 12.626a.357.357 0 0 1-.357.357h-2.274c-1.5 0-1.774.584-1.774 1.735v2.387h3.9a.356.356 0 0 1 .268.121.361.361 0 0 1 .086.281l-.555 4.3a.357.357 0 0 1-.354.311h-3.345v10.668a.357.357 0 0 1-.357.357h-4.437a.357.357 0 0 1-.357-.357v-10.67h-3.355a.357.357 0 0 1-.357-.357v-4.3a.357.357 0 0 1 .357-.357h3.355v-2.808c0-3.724 2.254-6.037 5.883-6.037a31.032 31.032 0 0 1 3.362.172.357.357 0 0 1 .31.354z" class="cls-1" transform="translate(1432.01 7476.012)"/>
    </g>
</svg>
