<svg xmlns="http://www.w3.org/2000/svg" id="ic_instagram" width="40" height="40" viewBox="0 0 40 40">
    <defs>
        <style>
            .cls-1{fill:#fff}
        </style>
    </defs>
    <path id="Path_10799" d="M40.669 23.88H27.555a3.8 3.8 0 0 0-3.8 3.8v13.11a3.8 3.8 0 0 0 3.8 3.8h13.114a3.8 3.8 0 0 0 3.8-3.8V27.676a3.8 3.8 0 0 0-3.8-3.796zm-6.557 17.17a6.817 6.817 0 1 1 6.817-6.817 6.824 6.824 0 0 1-6.817 6.817zm7.036-12.224a1.613 1.613 0 1 1 1.613-1.613 1.615 1.615 0 0 1-1.613 1.613z" class="cls-1" data-name="Path 10799" transform="translate(-14.112 -14.184)"/>
    <path id="Path_10800" d="M40.785 36.971a3.936 3.936 0 1 0 3.936 3.935 3.941 3.941 0 0 0-3.936-3.935z" class="cls-1" data-name="Path 10800" transform="translate(-20.785 -20.854)"/>
    <path id="Path_10801" d="M20 0a20 20 0 1 0 20 20A20 20 0 0 0 20 0zm12.031 26.015a6.076 6.076 0 0 1-6.07 6.07H14.039a6.076 6.076 0 0 1-6.07-6.07V14.093a6.077 6.077 0 0 1 6.07-6.07h11.922a6.076 6.076 0 0 1 6.07 6.07z" class="cls-1" data-name="Path 10801"/>
</svg>
