<svg xmlns="http://www.w3.org/2000/svg" width="40" height="40" viewBox="0 0 40 40">
    <defs>
        <style>
            .cls-1{fill:#fff}
        </style>
    </defs>
    <g id="ic_twitter" transform="translate(-1502 -7484)">
        <path id="twitter" d="M20 0a20 20 0 1 0 20 20A20 20 0 0 0 20 0zm9.132 15.594q.013.3.013.593a12.972 12.972 0 0 1-13.061 13.061 12.994 12.994 0 0 1-7.036-2.062 9.337 9.337 0 0 0 1.095.063 9.211 9.211 0 0 0 5.7-1.965 4.6 4.6 0 0 1-4.288-3.184 4.575 4.575 0 0 0 2.073-.079 4.592 4.592 0 0 1-3.683-4.5v-.059a4.559 4.559 0 0 0 2.079.574A4.594 4.594 0 0 1 10.6 11.9a13.033 13.033 0 0 0 9.462 4.8 4.593 4.593 0 0 1 7.823-4.186A9.207 9.207 0 0 0 30.8 11.4a4.608 4.608 0 0 1-2.019 2.539 9.155 9.155 0 0 0 2.636-.723 9.329 9.329 0 0 1-2.285 2.378zm0 0" class="cls-1" transform="translate(1502 7484)"/>
    </g>
</svg>
