<svg xmlns="http://www.w3.org/2000/svg" id="ic_youtube" width="40" height="40" viewBox="0 0 40 40">
    <defs>
        <style>
            .cls-1{fill:#fff}
        </style>
    </defs>
    <path id="Path_10796" d="M224.113 215.533l6.506-3.747-6.506-3.747zm0 0" class="cls-1" data-name="Path 10796" transform="translate(-206.604 -191.786)"/>
    <path id="Path_10797" d="M20 0a20 20 0 1 0 20 20A20 20 0 0 0 20 0zm12.5 20.02a33.009 33.009 0 0 1-.515 6.012 3.132 3.132 0 0 1-2.2 2.2c-1.962.518-9.785.518-9.785.518s-7.8 0-9.779-.535a3.132 3.132 0 0 1-2.2-2.2A32.864 32.864 0 0 1 7.5 20a32.988 32.988 0 0 1 .515-6.012 3.2 3.2 0 0 1 2.2-2.224C12.176 11.25 20 11.25 20 11.25s7.824 0 9.779.535a3.132 3.132 0 0 1 2.2 2.2 31.325 31.325 0 0 1 .521 6.035zm0 0" class="cls-1" data-name="Path 10797"/>
</svg>
