<svg xmlns="http://www.w3.org/2000/svg" width="11" height="12" fill="none" viewBox="0 0 11 12">
    <path fill="#4F2DA7" d="M5.074 3.273c.623 0 1.128-.488 1.128-1.091 0-.205-.06-.398-.161-.562L5.074 0l-.967 1.62c-.101.164-.16.357-.16.562 0 .603.504 1.09 1.127 1.09zM8.457 4.91h-2.82V3.817H4.51V4.91H1.691C.758 4.91 0 5.643 0 6.545v.84c0 .59.496 1.07 1.105 1.07.296 0 .572-.112.78-.314l1.207-1.165 1.204 1.162c.417.404 1.145.404 1.562 0l1.206-1.162 1.204 1.162c.209.202.485.314.78.314.61 0 1.106-.48 1.106-1.07v-.837c-.006-.902-.764-1.636-1.697-1.636z"/>
    <path fill="#4F2DA7" d="M7.665 8.72l-.606-.587-.61.586c-.735.712-2.02.712-2.756 0l-.606-.586-.61.586a1.944 1.944 0 0 1-1.372.554c-.409 0-.79-.126-1.105-.336v2.518c0 .3.254.545.564.545h9.02c.31 0 .564-.245.564-.545V8.937c-.316.21-.693.336-1.105.336-.521 0-1.009-.197-1.378-.554z"/>
</svg>
