<svg xmlns="http://www.w3.org/2000/svg" width="14" height="14" fill="none" viewBox="0 0 14 14">
    <path fill="#D0C3E8" d="M2.173 7.644v-.976c0-.146.117-.264.263-.264h.977c.146 0 .263.118.263.264v.976a.263.263 0 0 1-.263.264h-.977a.266.266 0 0 1-.263-.264zm2.305.26h.976a.263.263 0 0 0 .263-.263v-.976a.263.263 0 0 0-.263-.263h-.976a.263.263 0 0 0-.264.263v.976c.003.146.12.264.264.264zm2.041 0h.976a.263.263 0 0 0 .264-.263v-.976a.263.263 0 0 0-.264-.263H6.52a.263.263 0 0 0-.263.263v.976c.002.146.12.264.263.264zm-2.041 1.99h.976a.263.263 0 0 0 .263-.263v-.976a.263.263 0 0 0-.263-.264h-.976a.263.263 0 0 0-.264.264v.976c.003.146.12.263.264.263zm2.041 0h.976a.263.263 0 0 0 .264-.263v-.976a.263.263 0 0 0-.264-.264H6.52a.263.263 0 0 0-.263.264v.976c.002.146.12.263.263.263zm2.044 0h.976a.263.263 0 0 0 .264-.263v-.976a.263.263 0 0 0-.264-.264h-.976a.263.263 0 0 0-.263.264v.976c0 .146.117.263.263.263zm-6.127 0h.977a.263.263 0 0 0 .263-.263v-.976a.263.263 0 0 0-.263-.264h-.977a.263.263 0 0 0-.263.264v.976c0 .146.117.263.263.263zm4.083 1.987h.976a.263.263 0 0 0 .264-.263v-.976a.263.263 0 0 0-.264-.264H6.52a.263.263 0 0 0-.263.264v.976c.002.146.12.263.263.263zm-2.041 0h.976a.263.263 0 0 0 .263-.263v-.976a.263.263 0 0 0-.263-.264h-.976a.263.263 0 0 0-.264.264v.976c.003.146.12.263.264.263zm4.085-3.976h.976a.263.263 0 0 0 .264-.264v-.976a.263.263 0 0 0-.264-.263h-.976a.263.263 0 0 0-.263.263v.976c0 .146.117.264.263.264zm2.041 1.99h.977a.263.263 0 0 0 .263-.264v-.976a.263.263 0 0 0-.263-.264h-.976a.263.263 0 0 0-.264.264v.976c.003.146.12.263.264.263zm-2.04 1.986h.975a.263.263 0 0 0 .264-.263v-.976a.263.263 0 0 0-.264-.264h-.976a.263.263 0 0 0-.263.264v.976c0 .146.117.263.263.263zM0 12.468V3.04C0 2.196.687 1.51 1.532 1.51h1.717v-.95c0-.31.25-.559.559-.559h.873c.31 0 .558.25.558.558v.948h3.522V.558C8.76.25 9.01 0 9.319 0h.873c.31 0 .559.25.559.558v.948h1.717c.845 0 1.532.687 1.532 1.532v9.43c0 .845-.687 1.532-1.532 1.532H1.532A1.533 1.533 0 0 1 0 12.468zm1.185 0c0 .192.158.35.35.35h10.933a.35.35 0 0 0 .35-.35V5.485H1.185v6.983z"/>
</svg>
