<svg xmlns="http://www.w3.org/2000/svg" width="4" height="8" fill="none" viewBox="0 0 4 8">
    <path fill="#FF4C4C" d="M2.41 3.68V1.66c.232.075.434.212.575.397.124.165.378.21.567.102.19-.108.241-.329.117-.493a2.024 2.024 0 0 0-1.26-.745V.356C2.41.159 2.227 0 2 0c-.226 0-.41.16-.41.356V.92C.683 1.084 0 1.784 0 2.62c0 .835.683 1.535 1.59 1.7v2.02a1.165 1.165 0 0 1-.575-.397c-.124-.165-.378-.21-.567-.102-.19.108-.241.329-.117.493.294.388.748.652 1.26.745v.565c0 .197.183.356.409.356.226 0 .41-.16.41-.356V7.08C3.317 6.916 4 6.216 4 5.38c0-.835-.683-1.535-1.59-1.7zM.82 2.62c0-.44.321-.815.77-.96v1.92c-.449-.145-.77-.52-.77-.96zm1.59 3.72V4.42c.449.145.77.52.77.96 0 .44-.321.815-.77.96z"/>
</svg>
