<svg xmlns="http://www.w3.org/2000/svg" width="5" height="10" fill="none" viewBox="0 0 5 10">
    <path fill="#fff" d="M3.012 4.6V2.076c.29.093.543.265.719.497.155.205.473.262.71.127.235-.135.3-.411.145-.616-.368-.486-.935-.815-1.574-.931V.445C3.012.199 2.782 0 2.5 0c-.283 0-.512.2-.512.445v.705C.854 1.356 0 2.23 0 3.275c0 1.044.854 1.919 1.988 2.124v2.526a1.457 1.457 0 0 1-.719-.497c-.155-.205-.473-.262-.71-.127-.235.135-.3.411-.145.617.368.485.935.814 1.574.93v.707c0 .246.23.445.512.445.283 0 .512-.2.512-.445V8.85C4.146 8.644 5 7.77 5 6.725c0-1.044-.854-1.919-1.988-2.124zM1.024 3.276c0-.55.402-1.019.964-1.2v2.4c-.562-.182-.964-.65-.964-1.2zm1.988 4.65v-2.4c.562.182.964.65.964 1.2 0 .55-.402 1.019-.964 1.2z"/>
</svg>
