<svg xmlns="http://www.w3.org/2000/svg" width="20" height="21" fill="none" viewBox="0 0 20 21">
    <path fill="#40A459" d="M9.99 19.98c5.516 0 9.988-4.468 9.988-9.979 0-5.51-4.472-9.978-9.989-9.978S0 4.49 0 10s4.472 9.979 9.99 9.979z"/>
    <path fill="#378B4E" d="M9.989.022a10.224 10.224 0 0 0-.5.012c-.019.001-.037.003-.056.003l-.163.01-.082.007-.189.016-.096.01-.117.014-.1.012C13.587.744 17.372 4.93 17.372 10s-3.785 9.256-8.686 9.894l.1.012.117.014.096.01a9.762 9.762 0 0 0 .434.033c.019 0 .037.002.056.003l.215.008.058.002.227.002c5.517 0 9.99-4.467 9.99-9.978 0-5.51-4.473-9.978-9.99-9.978z"/>
    <path fill="#898790" d="M8.686 9.132l4.167-2.388s4.559.97 5.61-.948l.333-.605.288.627c.6 1.3.916 2.747.916 4.182 0 3.308-1.64 6.4-4.388 8.27l-.284.193-6.642-9.33z"/>
    <path fill="#7A797F" d="M19.978 10a9.924 9.924 0 0 0-1.208-4.762l-.306.558c-.37.673-.856 1.362-1.34 1.982.162.714.248 1.458.248 2.222a9.941 9.941 0 0 1-2.987 7.116l.933 1.354a10.013 10.013 0 0 0 4.66-8.47z"/>
    <path fill="#3D9AE3" d="M9.99 20a9.985 9.985 0 0 1-8.427-4.606l-.177-.275 5.563-4.685 6.403 8.989-.408.132A9.994 9.994 0 0 1 9.989 20z"/>
    <path fill="#1D81CE" d="M13.393 19.407l-.678-.968a9.98 9.98 0 0 1-4.033 1.477c.427.055.866.063 1.307.063 1.19 0 2.345-.19 3.403-.572z"/>
    <path fill="#fff" d="M6.95 10.434l1.736-1.301 6.68 9.307-.325.19c-.459.27-.941.503-1.435.695l-.254.098-6.403-8.989z"/>
    <path fill="#E0E0E3" d="M13.352 19.423a9.956 9.956 0 0 0 2.014-.983l-.963-1.341c-.524.517-1.105.976-1.732 1.368l.681.956z"/>
    <path fill="#FFCE00" d="M1.216 14.812a9.976 9.976 0 0 1-.692-1.555l-.083-.315 11.72-8.148 1.737 1.302-12.512 9.023-.17-.307z"/>
    <path fill="#CD2900" d="M14.95 9.774c-.615-.64-3.68-3.936-3.68-5.848A3.933 3.933 0 0 1 15.2 0a3.933 3.933 0 0 1 3.931 3.926c0 1.911-3.065 5.207-3.68 5.848a.348.348 0 0 1-.501 0z"/>
    <path fill="#891D00" d="M15.2 5.25a1.76 1.76 0 0 1-1.758-1.757 1.76 1.76 0 0 1 3.518 0A1.76 1.76 0 0 1 15.2 5.25z"/>
    <path fill="#fff" d="M5.646 7.288a2.064 2.064 0 0 0 2.063-2.06.326.326 0 0 0-.326-.326H6.08a.326.326 0 1 0 0 .651h.94a1.412 1.412 0 0 1-2.785-.325A1.412 1.412 0 0 1 6.578 4.17a.326.326 0 0 0 .431-.488 2.062 2.062 0 0 0-3.427 1.546c0 1.136.925 2.06 2.063 2.06z"/>
</svg>
