<?xml version="1.0" encoding="UTF-8"?>
<svg width="24px" height="24px" viewBox="0 0 24 24" version="1.1" xmlns="http://www.w3.org/2000/svg" xmlns:xlink="http://www.w3.org/1999/xlink">
    <!-- Generator: Sketch 49.1 (51147) - http://www.bohemiancoding.com/sketch -->
    <title>map-pin</title>
    <desc>Created with Sketch.</desc>
    <defs>
        <path d="M17.2259527,19.8127446 C16.2070021,20.8883036 15.118253,21.8681778 14.0291768,22.7354051 C13.6473986,23.0394137 13.2921737,23.3081095 12.9722093,23.5391949 C12.777224,23.6800175 12.6351454,23.7784202 12.5547002,23.8320503 C12.2188008,24.0559832 11.7811992,24.0559832 11.4452998,23.8320503 C11.3648546,23.7784202 11.222776,23.6800175 11.0277907,23.5391949 C10.7078263,23.3081095 10.3526014,23.0394137 9.97082322,22.7354051 C8.88174698,21.8681778 7.7929979,20.8883036 6.77404732,19.8127446 C3.80240157,16.6760074 2,13.3716045 2,9.99999991 C2.00000008,4.47715244 6.47715256,-2.22044606e-16 12,0 C17.5228474,2.22044606e-16 21.9999999,4.47715244 22,9.99999991 C22,13.3716045 20.1975984,16.6760074 17.2259527,19.8127446 Z M12.7833232,21.1708447 C13.803622,20.3583846 14.8242479,19.4398213 15.7740473,18.4372552 C18.4274016,15.6364924 20,12.7533953 20,9.99999987 C19.9999999,5.58172193 16.418278,2 12,2 C7.58172205,2 4.00000007,5.58172193 4,9.99999987 C4,12.7533953 5.57259843,15.6364924 8.22595268,18.4372552 C9.1757521,19.4398213 10.196378,20.3583846 11.2166768,21.1708447 C11.4951711,21.3926087 11.7576885,21.5936102 12,21.7726167 C12.2423115,21.5936102 12.5048289,21.3926087 12.7833232,21.1708447 Z M12,13.9999999 C9.790861,13.9999999 8,12.2091389 8,9.99999987 C8,7.79086087 9.790861,5.99999987 12,5.99999987 C14.209139,5.99999987 16,7.79086087 16,9.99999987 C16,12.2091389 14.209139,13.9999999 12,13.9999999 Z M12,11.9999999 C13.1045695,11.9999999 14,11.1045694 14,9.99999987 C14,8.89543037 13.1045695,7.99999987 12,7.99999987 C10.8954305,7.99999987 10,8.89543037 10,9.99999987 C10,11.1045694 10.8954305,11.9999999 12,11.9999999 Z" id="path-1"></path>
    </defs>
    <g id="map-pin" stroke="none" stroke-width="1" fill="none" fill-rule="evenodd">
        <mask id="mask-2" fill="white">
            <use xlink:href="#path-1"></use>
        </mask>
        <use id="Combined-Shape" fill="#4a4a4a" fill-rule="nonzero" xlink:href="#path-1"></use>
        <g id="COLOR/-black" mask="url(#mask-2)" fill="#4a4a4a">
            <rect id="Rectangle" x="0" y="0" width="24" height="24"></rect>
        </g>
    </g>
</svg>