<svg xmlns="http://www.w3.org/2000/svg" width="17" height="7" fill="none" viewBox="0 0 17 7">
    <path fill="#522FA9" d="M15.867 0H1.133C.507 0 0 .522 0 1.167v4.666C0 6.478.507 7 1.133 7h14.734C16.493 7 17 6.478 17 5.833V1.167C17 .522 16.493 0 15.867 0zM5.619 5.754h-.996L3.035 2.797v2.957h-.947V1.512h1.27l1.315 2.43v-2.43h.946v4.242zM9.241 2.32H7.484v.744h1.619v.809H7.484v1.07h1.757v.81H6.455V1.512H9.24v.81zm4.972 3.433H13.08l-.662-2.624-.642 2.624h-1.134L9.598 1.512h1.073l.568 2.846.691-2.846h1.027l.656 2.846.597-2.846h1.046l-1.043 4.242z"/>
</svg>
