<svg xmlns="http://www.w3.org/2000/svg" width="18" height="18" fill="none" viewBox="0 0 18 18">
    <path fill="#69BC45" d="M5.257 6.083c-.02-.04-.098-.085-.098-.085-.018-.01-.039-.01-.049.007 0 0-.025.03-.032.035-.029.02-.056.019-.083-.009l-.064-.063-.063-.064c-.028-.027-.028-.055-.009-.084a.4.4 0 0 1 .035-.031c.018-.01.017-.032.007-.05 0 0-.046-.077-.085-.098a.043.043 0 0 0-.052.008l-.028.028c-.089.09-.045.19.044.279l.081.081.082.082c.089.089.19.133.278.044l.029-.028a.044.044 0 0 0 .007-.052z"/>
    <path fill="#449E46" d="M5.267 6.078c-.022-.042-.1-.087-.103-.09a.061.061 0 0 0-.03-.008.037.037 0 0 0-.033.019.373.373 0 0 1-.029.031c-.026.018-.047.016-.07-.007l-.127-.127c-.022-.023-.024-.043-.007-.07a.368.368 0 0 1 .032-.028.037.037 0 0 0 .017-.023.055.055 0 0 0-.007-.04.334.334 0 0 0-.09-.104.055.055 0 0 0-.064.01l-.028.028c-.044.045-.06.095-.047.15.01.046.041.094.091.145l.163.163c.064.063.124.096.18.096a.16.16 0 0 0 .114-.052l.028-.029a.054.054 0 0 0 .01-.064zm-.025.049l-.028.028a.138.138 0 0 1-.099.045c-.05 0-.105-.03-.164-.089l-.163-.163a.296.296 0 0 1-.086-.134c-.01-.048.003-.09.042-.13l.028-.027a.032.032 0 0 1 .038-.006c.037.02.08.094.081.094.005.009.007.018.005.025a.015.015 0 0 1-.008.009l-.001.001a.327.327 0 0 0-.037.034.091.091 0 0 0-.013.03.157.157 0 0 1-.017-.055.011.011 0 0 0-.012-.01.011.011 0 0 0-.01.013.212.212 0 0 0 .07.129h.002l.117.118.001.001.002.002a.23.23 0 0 0 .13.059.011.011 0 0 0 0-.022.195.195 0 0 1-.061-.018.096.096 0 0 0 .026-.012.326.326 0 0 0 .034-.037V6.01a.015.015 0 0 1 .015-.008.04.04 0 0 1 .02.006c.02.012.077.05.093.08a.032.032 0 0 1-.005.039z"/>
    <path fill="#6AAF50" d="M9 18A9 9 0 1 0 9 0a9 9 0 0 0 0 18z"/>
    <path fill="#4D8538" d="M4.77 3.593A2.221 2.221 0 0 0 3.77 6.468a15.995 15.995 0 0 0 2.723 4.198l.842.842 5.592 5.593a9.038 9.038 0 0 0 3.476-2.981l-2.064-2.064a1.146 1.146 0 0 0-.305-.305L6.25 3.967a1.147 1.147 0 0 0-1.478-.374z"/>
    <path fill="#fff" d="M12.29 10.569a.846.846 0 0 0-.953.002l-.413.284a1.289 1.289 0 0 1-1.515-.042c-.416-.321-.814-.665-1.192-1.03a14.12 14.12 0 0 1-1.03-1.192 1.289 1.289 0 0 1-.041-1.515l.283-.413a.846.846 0 0 0 .003-.953L6.249 3.967a1.147 1.147 0 0 0-1.478-.374 2.221 2.221 0 0 0-1.002 2.875 15.995 15.995 0 0 0 2.723 4.199l.842.841a15.996 15.996 0 0 0 4.198 2.724 2.221 2.221 0 0 0 2.875-1.002 1.147 1.147 0 0 0-.374-1.479L12.29 10.57z"/>
    <path fill="#556080" d="M4.809 6.2a.133.133 0 1 0 0-.265.133.133 0 0 0 0 .266z"/>
    <path fill="#fff" d="M4.875 6.056H4.82v-.055a.011.011 0 1 0-.023 0v.055h-.055a.011.011 0 0 0 0 .023h.055v.055a.011.011 0 1 0 .023 0v-.055h.055a.011.011 0 0 0 0-.023z"/>
</svg>
