<svg xmlns="http://www.w3.org/2000/svg" width="25" height="21" fill="none" viewBox="0 0 25 21">
    <path fill="#fff" d="M11.2 16.026a.893.893 0 0 1-.478-.138.846.846 0 0 1-.26-1.187l2.513-3.788h-2.568a.87.87 0 0 1-.88-.859.87.87 0 0 1 .88-.858h4.186c.323 0 .62.172.774.448a.84.84 0 0 1-.035.877l-3.392 5.113a.885.885 0 0 1-.74.392zM25 3.339v16.636a.87.87 0 0 1-.88.858H.88a.87.87 0 0 1-.88-.858V3.339a.87.87 0 0 1 .88-.859h2.602V.86A.87.87 0 0 1 4.362 0a.87.87 0 0 1 .88.859V2.48h2.309V.86A.87.87 0 0 1 8.43 0a.87.87 0 0 1 .88.859V2.48h2.309V.86A.87.87 0 0 1 12.5 0a.87.87 0 0 1 .88.859V2.48h2.309V.86a.87.87 0 0 1 .88-.859.87.87 0 0 1 .88.859V2.48h2.308V.86a.87.87 0 0 1 .88-.859.87.87 0 0 1 .881.859V2.48h2.602a.87.87 0 0 1 .88.859zm-2.76 3.415H2.76v10.874h19.48V6.754z"/>
</svg>
