<svg xmlns="http://www.w3.org/2000/svg" viewBox="0 0 512 512"><defs><style>.cls-1{fill:#ffe082;}.cls-2{fill:#ffca28;}.cls-3{fill:#8bc0ff;}.cls-4{fill:#3897ff;}.cls-5{fill:#90caf9;}.cls-6{fill:#42a5f5;}</style></defs><title>Anyone</title><g id="Слой_2" data-name="Слой 2"><g id="Слой_1-2" data-name="Слой 1"><path class="cls-1" d="M512,256c0,141.39-114.61,256-256,256S0,397.39,0,256,114.61,0,256,0,512,114.61,512,256Z"/><path class="cls-2" d="M336.19,94.57,230.57,85.25l-87.33,88.51,99,98.14-11.68,94.32,37,36.69-29,41.13,63.77,63.77c114.82-21,202.89-118.54,209.32-237.81Z"/><path class="cls-3" d="M230.57,425.57A25.43,25.43,0,0,0,256,451l8.48-25.43L256,400.13a25.43,25.43,0,0,0-25.43,25.44Z"/><path class="cls-4" d="M256,400.13V451a25.44,25.44,0,0,0,0-50.87Z"/><path class="cls-3" d="M238.72,275.17l-8.15,7.55v83.5H256l17-53.56L256,259.1c-9.74,9.09-17.09,15.9-17.28,16.07Z"/><path class="cls-5" d="M143.24,173.76h50.87A62,62,0,0,1,256,111.87l17-25.44L256,61A112.89,112.89,0,0,0,143.24,173.76Z"/><path class="cls-6" d="M256,61v50.87a61.89,61.89,0,0,1,43.77,105.65c-9.17,9.17-29.16,27.94-43.77,41.58V366.22h25.43V304.93c14-13.05,42.28-39.41,54.3-51.43A112.76,112.76,0,0,0,256,61Z"/></g></g></svg>