<svg xmlns="http://www.w3.org/2000/svg" width="35" height="31" fill="none" viewBox="0 0 35 31">
    <path fill="#6D46C0" d="M26.979 11.809H6.562c-1.206 0-2.188.993-2.188 2.214V15.5c0 5.268 2.875 10.045 7.5 12.467a.726.726 0 0 0 .984-.317.743.743 0 0 0-.314-.995c-4.139-2.167-6.711-6.44-6.711-11.155v-1.476c0-.407.326-.738.729-.738h20.417c.402 0 .73.33.73.738V15.5c0 4.714-2.573 8.988-6.714 11.153a.744.744 0 0 0-.313.995c.13.254.385.4.649.4a.712.712 0 0 0 .334-.082c4.627-2.421 7.502-7.197 7.502-12.466v-1.476c0-1.22-.982-2.214-2.188-2.214z"/>
    <path fill="#6D46C0" d="M33.488 27.026a.73.73 0 0 0-.674-.456H.73a.73.73 0 0 0-.674.456.743.743 0 0 0 .158.805l1.634 1.656A5.043 5.043 0 0 0 5.458 31h22.625a5.051 5.051 0 0 0 3.612-1.513l1.635-1.656a.743.743 0 0 0 .158-.805zm-2.825 1.417a3.603 3.603 0 0 1-2.579 1.08H5.458c-.973 0-1.89-.383-2.578-1.08l-.391-.396h28.565l-.391.396zM33.59 15.294c-1.965-1.278-5.103.11-5.455.27a.743.743 0 0 0-.361.98.725.725 0 0 0 .967.365c.703-.323 2.957-1.09 4.06-.37.497.323.74.95.74 1.913 0 2.955-5.888 4.742-8.162 5.182l-.516.103a.737.737 0 0 0-.575.866.732.732 0 0 0 .856.58l.512-.101c.382-.074 9.344-1.853 9.344-6.63 0-1.485-.475-2.547-1.41-3.158zM22.448 5.626c1.186-1.5 1.186-3.848 0-5.348a.721.721 0 0 0-1.025-.115.743.743 0 0 0-.114 1.038c.751.949.751 2.554-.002 3.506-1.187 1.5-1.187 3.848 0 5.348a.723.723 0 0 0 1.026.115.744.744 0 0 0 .113-1.037c-.752-.95-.752-2.554.002-3.507zM18.067 5.626c1.187-1.5 1.187-3.848 0-5.348a.722.722 0 0 0-1.025-.115.744.744 0 0 0-.114 1.038c.752.949.752 2.554-.002 3.506-1.185 1.5-1.185 3.848 0 5.348a.723.723 0 0 0 1.026.115.743.743 0 0 0 .113-1.037c-.75-.95-.75-2.554.002-3.507zM13.698 5.628c1.185-1.5 1.185-3.849 0-5.348a.72.72 0 0 0-1.026-.116.744.744 0 0 0-.113 1.037c.75.949.75 2.554-.002 3.506-1.187 1.5-1.187 3.848 0 5.348a.723.723 0 0 0 1.025.117.744.744 0 0 0 .114-1.038c-.752-.95-.752-2.554.002-3.506z"/>
</svg>
