<svg xmlns="http://www.w3.org/2000/svg" width="21" height="21" fill="none" viewBox="0 0 21 21">
    <path fill="#fff" d="M3.26 11.466v-1.464c0-.22.176-.395.395-.395h1.464c.219 0 .395.176.395.395v1.464a.394.394 0 0 1-.395.395H3.655a.4.4 0 0 1-.395-.395zm3.457.391H8.18a.394.394 0 0 0 .395-.395V9.998a.394.394 0 0 0-.395-.396H6.717a.394.394 0 0 0-.396.396v1.464a.4.4 0 0 0 .396.395zm3.062 0h1.464c.219 0 .395-.176.395-.395V9.998a.394.394 0 0 0-.395-.396H9.779a.394.394 0 0 0-.396.396v1.464a.4.4 0 0 0 .396.395zm-3.062 2.985H8.18a.394.394 0 0 0 .395-.395v-1.465a.394.394 0 0 0-.395-.395H6.717a.394.394 0 0 0-.396.395v1.465a.4.4 0 0 0 .396.395zm3.062 0h1.464c.219 0 .395-.176.395-.395v-1.465a.394.394 0 0 0-.395-.395H9.779a.394.394 0 0 0-.396.395v1.465a.4.4 0 0 0 .396.395zm3.066 0h1.464a.394.394 0 0 0 .395-.395v-1.465a.394.394 0 0 0-.395-.395h-1.464a.394.394 0 0 0-.395.395v1.465c0 .219.176.395.395.395zm-9.19 0h1.464a.394.394 0 0 0 .395-.395v-1.465a.394.394 0 0 0-.395-.395H3.655a.394.394 0 0 0-.395.395v1.465c0 .219.176.395.395.395zm6.124 2.98h1.464c.219 0 .395-.176.395-.395v-1.464a.394.394 0 0 0-.395-.395H9.779a.394.394 0 0 0-.396.395v1.464a.4.4 0 0 0 .396.395zm-3.062 0H8.18a.394.394 0 0 0 .395-.395v-1.464a.394.394 0 0 0-.395-.395H6.717a.394.394 0 0 0-.396.395v1.464a.4.4 0 0 0 .396.395zm6.128-5.965h1.464a.394.394 0 0 0 .395-.395V9.998a.394.394 0 0 0-.395-.396h-1.464a.394.394 0 0 0-.395.396v1.464c0 .219.176.395.395.395zm3.062 2.985h1.464a.394.394 0 0 0 .395-.395v-1.465a.394.394 0 0 0-.395-.395h-1.464a.394.394 0 0 0-.395.395v1.465a.4.4 0 0 0 .395.395zm-3.062 2.98h1.464a.394.394 0 0 0 .395-.395v-1.464a.394.394 0 0 0-.395-.395h-1.464a.394.394 0 0 0-.395.395v1.464c0 .219.176.395.395.395zM0 18.702V4.562a2.3 2.3 0 0 1 2.298-2.298h2.576V.837c0-.463.374-.837.838-.837h1.31c.463 0 .837.374.837.837V2.26h5.282V.837c0-.463.374-.837.838-.837h1.31c.463 0 .837.374.837.837V2.26h2.576A2.3 2.3 0 0 1 21 4.556v14.146A2.3 2.3 0 0 1 18.703 21H2.297A2.3 2.3 0 0 1 0 18.703zm1.778 0c0 .288.236.524.524.524h16.4a.526.526 0 0 0 .524-.523V8.228H1.778v10.475z"/>
</svg>
