<svg xmlns="http://www.w3.org/2000/svg" width="17" height="18" fill="none" viewBox="0 0 17 18">
    <path fill="#6D46C0" d="M5.95 8.182v4.909c0 .452.38.818.85.818s.85-.366.85-.818V8.18c0-.451-.38-.817-.85-.817s-.85.366-.85.818zM9.35 13.09V8.183c0-.452.38-.818.85-.818s.85.366.85.818v4.909c0 .452-.38.818-.85.818s-.85-.366-.85-.818z"/>
    <path fill="#6D46C0" fill-rule="evenodd" d="M4.25 3.273H.85c-.47 0-.85.366-.85.818 0 .452.38.818.85.818h.85v10.637C1.7 16.9 2.842 18 4.25 18h8.5c1.408 0 2.55-1.099 2.55-2.454V4.909h.85c.47 0 .85-.366.85-.818 0-.452-.38-.818-.85-.818h-3.4v-.818C12.75 1.099 11.608 0 10.2 0H6.8C5.392 0 4.25 1.099 4.25 2.455v.818zm1.7 0h5.1v-.818c0-.452-.38-.819-.85-.819H6.8c-.47 0-.85.367-.85.819v.818zM3.4 4.909v10.637c0 .451.38.818.85.818h8.5a.87.87 0 0 0 .703-.358.792.792 0 0 0 .147-.46V4.909H3.4z" clip-rule="evenodd"/>
</svg>
