<svg xmlns="http://www.w3.org/2000/svg" width="360" height="360" fill="none" viewBox="0 0 360 360">
    <path fill="#DAFFFB" d="M233.496 72.72c-12.096 0-23.328 2.52-32.616 6.768-7.056 3.24-14.904 4.176-22.536 2.52C125.352 70.56 66.6 96.552 66.6 136.872c0 5.472 1.152 10.728 3.24 15.768-17.208 7.056-29.088 21.888-29.088 39.024 0 23.976 23.328 43.488 52.056 43.488 27.72 0 50.328-18.072 51.984-40.824 2.448.144 4.968.216 7.488.216 33.84 0 63-13.176 76.968-32.328 4.968-6.84 12.456-11.592 20.808-13.248 23.904-4.752 41.4-19.728 41.4-37.368 0-21.456-25.992-38.88-57.96-38.88z"/>
    <path stroke="#C0A0FA" stroke-miterlimit="10" stroke-width="1.459" d="M23.904 230.328h64.944"/>
    <path stroke="#FAA0A8" stroke-miterlimit="10" stroke-width="1.653" d="M336.096 218.52h-49.392"/>
    <path fill="#FFE2E1" d="M301.32 112.464c0-7.128-3.096-14.544-7.992-17.136-3.6-1.872-6.696-4.68-8.496-8.28-3.384-6.552-7.632-10.512-12.24-10.512-8.352 0-15.48 12.744-18.288 30.672-.72 4.68-2.88 9-6.336 12.168-4.896 4.464-8.064 11.664-8.064 19.8 0 11.952 7.128 22.536 16.776 24.264 3.456.648 6.552 2.376 9.144 4.68 2.088 1.872 4.392 2.952 6.768 2.952 8.64 0 15.984-13.608 18.504-32.472.576-4.248 2.448-8.208 5.328-11.448 2.952-3.24 4.896-8.64 4.896-14.688z"/>
    <path stroke="#FFB4BB" stroke-miterlimit="10" stroke-width="1.653" d="M271.152 105.48v96.336M254.016 141.84l17.136 21.888 9.648-10.944M286.704 114.552l-15.552 17.424-5.832-4.464"/>
    <path fill="#FFB4BB" d="M334.296 149.472c-.936-.504-1.944-.72-3.024-.72-3.6 0-6.624-2.664-6.84-6.264-.792-14.112-6.048-25.992-13.032-25.992-5.112 0-9.576 6.624-11.736 16.2-.792 3.384-4.032 5.616-7.488 5.04-2.232-.36-4.176-.072-5.688 1.008-8.136 5.688.36 28.296 14.544 41.472 1.656 1.512 2.448 3.744 2.088 5.904-1.296 7.632-.072 13.68 3.816 15.696 6.408 3.384 17.784-5.616 25.344-20.088 7.56-14.4 8.496-28.872 2.016-32.256z"/>
    <path stroke="#FAA0A8" stroke-miterlimit="10" stroke-width="1.653" d="M311.472 148.32v69.768M326.952 167.328l-15.48 25.2M294.48 149.904l16.992 25.776"/>
    <path fill="#EFE1FF" d="M69.336 143.496c0-6.768 2.952-13.824 7.56-16.272 3.384-1.8 6.336-4.464 8.064-7.92 3.168-6.264 7.2-10.008 11.664-10.008 7.92 0 14.688 12.096 17.352 29.088.72 4.392 2.736 8.568 6.048 11.592 4.608 4.248 7.632 11.088 7.632 18.792 0 11.376-6.768 21.384-15.912 23.04-3.24.576-6.192 2.232-8.64 4.464-2.016 1.8-4.176 2.808-6.408 2.808-8.208 0-15.12-12.96-17.568-30.816-.576-4.032-2.304-7.848-5.04-10.872-2.952-3.096-4.752-8.136-4.752-13.896z"/>
    <path stroke="#CEB4FF" stroke-miterlimit="10" stroke-width="1.57" d="M97.992 136.872v91.368M114.192 171.36l-16.2 20.736-9.144-10.368M83.232 145.512L97.992 162l5.472-4.248"/>
    <path fill="#CEB4FF" d="M71.352 169.848c-.792-.432-1.656-.648-2.664-.648-3.168 0-5.832-2.376-6.048-5.472-.72-12.456-5.328-22.896-11.52-22.896-4.536 0-8.424 5.832-10.368 14.328-.648 2.952-3.6 4.968-6.624 4.464-1.944-.288-3.672-.072-4.968.864-7.2 5.04.288 24.984 12.816 36.576 1.44 1.368 2.16 3.312 1.872 5.256-1.152 6.768-.072 12.096 3.384 13.824 5.688 2.952 15.696-4.968 22.392-17.784 6.624-12.816 7.416-25.56 1.728-28.512z"/>
    <path stroke="#C0A0FA" stroke-miterlimit="10" stroke-width="1.459" d="M51.192 168.84v61.488M64.872 185.616l-13.68 22.248M36.216 170.208l14.976 22.752"/>
    <path fill="#E3E1FF" d="M291.312 154.08h-87.48a3.073 3.073 0 0 0-3.096 3.096v102.816a3.073 3.073 0 0 0 3.096 3.096h87.48a3.073 3.073 0 0 0 3.096-3.096V157.176a3.073 3.073 0 0 0-3.096-3.096z"/>
    <path fill="#fff" d="M285.12 167.976h-75.384v85.608h75.384v-85.608z"/>
    <path fill="#B4B7FF" d="M214.488 162.936h-3.744a.799.799 0 0 1-.792-.792v-2.376c0-.432.36-.792.792-.792h3.744c.432 0 .792.36.792.792v2.376c0 .432-.36.792-.792.792zM222.264 162.936h-3.744a.799.799 0 0 1-.792-.792v-2.376c0-.432.36-.792.792-.792h3.744c.432 0 .792.36.792.792v2.376c0 .432-.36.792-.792.792zM230.04 162.936h-3.744a.799.799 0 0 1-.792-.792v-2.376c0-.432.36-.792.792-.792h3.744c.432 0 .792.36.792.792v2.376c0 .432-.36.792-.792.792zM285.12 159.768h-48.816v2.016h48.816v-2.016zM275.472 214.272v27.216h-56.016v-27.216h56.016zm.648-.648h-57.312v28.44h57.312v-28.44zM275.328 173.88h-42.12v4.608h42.12v-4.608zM275.328 182.16h-42.12v4.608h42.12v-4.608zM275.328 190.44h-42.12v4.608h42.12v-4.608zM275.328 198.648h-42.12v4.608h42.12v-4.608zM224.568 178.488h-2.736a2.275 2.275 0 0 1-2.304-2.304 2.275 2.275 0 0 1 2.304-2.304h2.736a2.275 2.275 0 0 1 2.304 2.304 2.275 2.275 0 0 1-2.304 2.304zM224.568 186.768h-2.736a2.275 2.275 0 0 1-2.304-2.304 2.275 2.275 0 0 1 2.304-2.304h2.736a2.275 2.275 0 0 1 2.304 2.304 2.275 2.275 0 0 1-2.304 2.304zM224.568 194.976h-2.736a2.275 2.275 0 0 1-2.304-2.304 2.275 2.275 0 0 1 2.304-2.304h2.736a2.275 2.275 0 0 1 2.304 2.304 2.275 2.275 0 0 1-2.304 2.304zM224.568 203.256h-2.736a2.275 2.275 0 0 1-2.304-2.304 2.275 2.275 0 0 1 2.304-2.304h2.736a2.275 2.275 0 0 1 2.304 2.304 2.275 2.275 0 0 1-2.304 2.304z"/>
    <path fill="#FFE2E1" d="M154.224 247.248v-57.456a3.073 3.073 0 0 0-3.096-3.096h-87.48a3.073 3.073 0 0 0-3.096 3.096v57.456a4.517 4.517 0 0 0 4.536 4.536h84.672c2.448-.072 4.464-2.088 4.464-4.536z"/>
    <path fill="#fff" d="M145.008 200.52H69.624v44.64h75.384v-44.64z"/>
    <path fill="#FFB4BB" d="M74.304 195.48H70.56a.799.799 0 0 1-.792-.792v-2.376c0-.432.36-.792.792-.792h3.744c.432 0 .792.36.792.792v2.376c0 .432-.36.792-.792.792zM82.08 195.48h-3.744a.799.799 0 0 1-.792-.792v-2.376c0-.432.36-.792.792-.792h3.744c.432 0 .792.36.792.792v2.376c.072.432-.288.792-.792.792zM89.856 195.48h-3.744a.799.799 0 0 1-.792-.792v-2.376c0-.432.36-.792.792-.792h3.744c.432 0 .792.36.792.792v2.376c.072.432-.288.792-.792.792zM145.008 192.312H96.192v2.016h48.816v-2.016zM135.216 206.496h-42.12v4.608h42.12v-4.608zM135.216 214.704h-42.12v4.608h42.12v-4.608zM135.216 222.984h-42.12v4.608h42.12v-4.608zM135.216 231.264h-42.12v4.608h42.12v-4.608zM84.456 211.104H81.72a2.275 2.275 0 0 1-2.304-2.304 2.275 2.275 0 0 1 2.304-2.304h2.736a2.275 2.275 0 0 1 2.304 2.304c0 1.224-1.08 2.304-2.304 2.304zM84.456 219.312H81.72a2.275 2.275 0 0 1-2.304-2.304 2.275 2.275 0 0 1 2.304-2.304h2.736a2.275 2.275 0 0 1 2.304 2.304c0 1.296-1.08 2.304-2.304 2.304zM84.456 227.592H81.72a2.275 2.275 0 0 1-2.304-2.304 2.275 2.275 0 0 1 2.304-2.304h2.736a2.275 2.275 0 0 1 2.304 2.304c0 1.224-1.08 2.304-2.304 2.304zM84.456 235.8H81.72a2.275 2.275 0 0 1-2.304-2.304 2.275 2.275 0 0 1 2.304-2.304h2.736a2.275 2.275 0 0 1 2.304 2.304c0 1.296-1.08 2.304-2.304 2.304z"/>
    <path fill="#7878BF" d="M228.024 263.088h-83.88c-4.032 0-7.344-3.312-7.344-7.344V112.896c0-4.032 3.312-7.344 7.344-7.344h83.808c4.032 0 7.344 3.312 7.344 7.344v142.848c.072 4.032-3.24 7.344-7.272 7.344z"/>
    <path fill="#8787D5" d="M222.624 263.088h-86.616c-4.104 0-7.488-3.312-7.488-7.488V113.04c0-4.104 3.312-7.488 7.488-7.488h86.616c4.104 0 7.488 3.312 7.488 7.488V255.6c-.072 4.104-3.384 7.488-7.488 7.488z"/>
    <path fill="#A3A3FF" d="M217.224 255.456H141.12a5.162 5.162 0 0 1-5.184-5.184V118.656a5.162 5.162 0 0 1 5.184-5.184h76.176a5.162 5.162 0 0 1 5.184 5.184V250.2c-.072 2.88-2.376 5.256-5.256 5.256z"/>
    <path fill="#8787D5" d="M193.248 119.088H164.16c-2.52 0-4.608-2.088-4.608-4.608v-3.024h38.304v3.024a4.594 4.594 0 0 1-4.608 4.608zM126.216 257.832v-7.776h-3.384a16.429 16.429 0 0 0-1.512-3.672l2.376-2.376-5.472-5.472-2.376 2.376c-1.152-.648-2.376-1.224-3.672-1.512v-3.384H104.4v3.384c-1.296.36-2.52.864-3.672 1.512l-2.376-2.376-5.472 5.472 2.376 2.376c-.648 1.152-1.224 2.376-1.512 3.672H90.36v7.776h3.384c.36 1.296.864 2.52 1.512 3.672l-2.376 2.376 5.472 5.472 2.376-2.376c1.152.648 2.376 1.224 3.672 1.512v3.384h7.776v-3.312c1.296-.36 2.52-.864 3.672-1.512l2.376 2.376 5.472-5.472-2.376-2.376c.648-1.152 1.224-2.376 1.512-3.672h3.384v-.072zm-18 4.896a8.85 8.85 0 0 1-8.856-8.856 8.85 8.85 0 0 1 8.856-8.856 8.85 8.85 0 0 1 8.856 8.856c-.072 4.968-4.032 8.856-8.856 8.856z"/>
    <path fill="#96DBBF" d="M97.056 261.432V255.6h-2.52a11.568 11.568 0 0 0-1.152-2.736l1.8-1.8-4.104-4.104-1.8 1.8c-.864-.504-1.8-.864-2.736-1.152v-2.52h-5.832v2.52a11.568 11.568 0 0 0-2.736 1.152l-1.8-1.8-4.104 4.104 1.8 1.8c-.504.864-.864 1.8-1.152 2.736H70.2v5.832h2.52a11.568 11.568 0 0 0 1.152 2.736l-1.8 1.8 4.104 4.104 1.8-1.8c.864.504 1.8.864 2.736 1.152v2.52h5.832v-2.52a11.568 11.568 0 0 0 2.736-1.152l1.8 1.8 4.104-4.104-1.8-1.8c.504-.864.864-1.8 1.152-2.736h2.52zm-13.392 3.672c-3.6 0-6.552-2.952-6.552-6.552 0-3.6 2.952-6.552 6.552-6.552 3.6 0 6.552 2.952 6.552 6.552 0 3.6-2.952 6.552-6.552 6.552z"/>
    <path fill="#C8E6EB" d="M308.16 279.072H130.32a1.214 1.214 0 0 1-1.224-1.224c0-.648.504-1.224 1.224-1.224h177.84c.648 0 1.224.504 1.224 1.224s-.504 1.224-1.224 1.224z"/>
    <path fill="#fff" d="M215.712 224.496c1.368 0 2.52 1.152 2.52 2.52v16.128c0 1.368-1.152 2.52-2.52 2.52H142.92c-1.368 0-2.52-1.152-2.52-2.52v-16.128c0-1.368 1.152-2.52 2.52-2.52h72.792zm0-.576H142.92a3.073 3.073 0 0 0-3.096 3.096v16.128a3.073 3.073 0 0 0 3.096 3.096h72.792a3.073 3.073 0 0 0 3.096-3.096v-16.128a3.073 3.073 0 0 0-3.096-3.096z"/>
    <path fill="#C8E6EB" d="M240.192 239.688h-49.32v31.608h49.32v-31.608z"/>
    <path fill="#B4D7DC" d="M215.496 255.528l-24.624 15.768h49.32l-24.696-15.768z"/>
    <path fill="#A5C8CD" d="M240.192 239.688h-49.32l24.624 22.392 24.696-22.392z"/>
    <path fill="#FA968C" d="M208.296 220.608c-.792-.936.36-2.232 1.368-1.512 10.8 8.28 20.448 10.872 27.432-1.008.504-.936 1.656-3.024 1.944-4.032.504-1.872 2.448-3.024 4.392-2.52 2.088.576 3.168 2.808 2.376 4.824-4.248 10.296-18.792 24.696-37.512 4.248z"/>
    <path fill="#000" d="M180.072 171.792H107.28a3.073 3.073 0 0 1-3.096-3.096v-16.128a3.073 3.073 0 0 1 3.096-3.096h72.792a3.073 3.073 0 0 1 3.096 3.096v16.128c0 1.656-1.368 3.096-3.096 3.096z" opacity=".15"/>
    <path fill="#fff" d="M180.072 170.568H107.28a3.073 3.073 0 0 1-3.096-3.096v-16.128a3.073 3.073 0 0 1 3.096-3.096h72.792a3.073 3.073 0 0 1 3.096 3.096v16.128a3.073 3.073 0 0 1-3.096 3.096z"/>
    <path fill="#fff" d="M215.712 128.088c1.368 0 2.52 1.152 2.52 2.52v16.128c0 1.368-1.152 2.52-2.52 2.52H142.92c-1.368 0-2.52-1.152-2.52-2.52v-16.128c0-1.368 1.152-2.52 2.52-2.52h72.792zm0-.576H142.92a3.073 3.073 0 0 0-3.096 3.096v16.128a3.073 3.073 0 0 0 3.096 3.096h72.792a3.073 3.073 0 0 0 3.096-3.096v-16.128a3.073 3.073 0 0 0-3.096-3.096zM215.712 160.2c1.368 0 2.52 1.152 2.52 2.52v16.128c0 1.368-1.152 2.52-2.52 2.52H142.92c-1.368 0-2.52-1.152-2.52-2.52V162.72c0-1.368 1.152-2.52 2.52-2.52h72.792zm0-.576H142.92a3.073 3.073 0 0 0-3.096 3.096v16.128a3.073 3.073 0 0 0 3.096 3.096h72.792a3.073 3.073 0 0 0 3.096-3.096V162.72c0-1.656-1.368-3.096-3.096-3.096zM215.712 192.96c1.368 0 2.52 1.152 2.52 2.52v16.128c0 1.368-1.152 2.52-2.52 2.52H142.92c-1.368 0-2.52-1.152-2.52-2.52V195.48c0-1.368 1.152-2.52 2.52-2.52h72.792zm0-.576H142.92a3.073 3.073 0 0 0-3.096 3.096v16.128a3.073 3.073 0 0 0 3.096 3.096h72.792a3.073 3.073 0 0 0 3.096-3.096V195.48a3.073 3.073 0 0 0-3.096-3.096z"/>
    <path fill="#73C8F0" d="M120.384 166.392h-9.72a1.29 1.29 0 0 1-1.296-1.296v-11.52c0-.72.576-1.296 1.296-1.296h9.72c.72 0 1.296.576 1.296 1.296v11.52c-.072.72-.648 1.296-1.296 1.296zM159.12 152.352h-32.184v1.728h32.184v-1.728zM176.472 158.256h-49.536v1.728h49.536v-1.728zM176.472 164.16h-49.536v1.728h49.536v-1.728z"/>
    <path fill="#000" d="M225.648 243.864h-72.792a3.073 3.073 0 0 1-3.096-3.096V224.64a3.073 3.073 0 0 1 3.096-3.096h72.792a3.073 3.073 0 0 1 3.096 3.096v16.128a3.073 3.073 0 0 1-3.096 3.096z" opacity=".15"/>
    <path fill="#fff" d="M225.648 242.712h-72.792a3.073 3.073 0 0 1-3.096-3.096v-16.128a3.073 3.073 0 0 1 3.096-3.096h72.792a3.073 3.073 0 0 1 3.096 3.096v16.128c0 1.656-1.368 3.096-3.096 3.096z"/>
    <path fill="#96DBBF" d="M165.96 236.736h-9.72a1.29 1.29 0 0 1-1.296-1.296v-11.52c0-.72.576-1.296 1.296-1.296h9.72c.72 0 1.296.576 1.296 1.296v11.52c-.072.72-.648 1.296-1.296 1.296zM214.056 224.496h-32.184v1.728h32.184v-1.728zM222.768 230.4h-49.536v1.728h49.536V230.4zM222.768 236.304h-49.536v1.728h49.536v-1.728z"/>
    <path fill="#FA968C" d="M130.896 243.504c.144 2.304 1.512 15.192 2.52 23.472.504 4.176.576 7.2.936 7.128 1.008-.288 4.104-27.432 3.888-30.96-.216-3.528-2.016-6.264-4.032-6.12-2.016.072-3.528 2.952-3.312 6.48z"/>
    <path fill="#0073AA" d="M136.008 267.48c-.36 0-2.448.288-2.808.36-1.224-8.28-2.736-22.248-2.592-24.696 0-.288.072-.504.072-.792.432-3.456.432-7.056-.36-10.44-1.8-7.776-3.168-16.272-3.384-18.576-.288-4.608 2.376-8.496 5.904-8.712 3.528-.216 6.48 2.952 7.056 7.488 1.44 11.016-3.888 55.152-3.888 55.368z"/>
    <path fill="#195FA0" d="M139.464 232.2c.648-8.496.936-16.272.504-20.088-.576-4.536-3.528-7.704-7.056-7.488-3.528.216-6.192 4.104-5.904 8.712.072.576.144 1.44.288 2.664 5.256 2.088 9.072 6.912 10.08 12.672a6.382 6.382 0 0 0 2.088 3.528z"/>
    <path fill="#FA968C" d="M133.128 267.48s.216 5.976-.288 7.128c-.504 1.152-.576 2.448.936 2.448h5.76c1.008 0 1.872-.144 1.8-.792 0-.648-4.536-.864-5.472-1.512-.864-.648-.216-6.912-.216-6.912l-2.52-.36z"/>
    <path fill="#A03C19" d="M139.104 275.472c-.864.288-1.8.504-2.736.504-1.296 0-2.592-.36-3.672-.864-.288 1.008-.216 1.944 1.152 1.944h5.76c1.008 0 1.872-.144 1.8-.792 0-.432-1.08-.576-2.304-.792z"/>
    <path fill="#FA968C" d="M138.888 244.296c.144 2.304 1.512 15.192 2.52 23.472.504 4.176.576 7.2.936 7.128 1.008-.288 4.104-27.432 3.888-30.96-.216-3.528-2.016-6.264-4.032-6.12-2.016.072-3.528 3.024-3.312 6.48z"/>
    <path fill="#0091C8" d="M144 268.272c-.36 0-2.448.288-2.808.36-1.224-8.28-2.736-22.248-2.592-24.696 0-.288.072-.504.072-.792.432-3.456.432-7.056-.36-10.44-1.8-7.776-3.168-16.272-3.384-18.576-.288-4.608 2.376-8.496 5.904-8.712 3.528-.216 6.48 2.952 7.056 7.488 1.368 11.016-3.888 55.152-3.888 55.368z"/>
    <path fill="#FA968C" d="M141.12 268.272s.216 5.976-.288 7.128c-.504 1.152-.648 2.52.936 2.448 1.512-.072 4.464-.144 5.04-.216 1.296-.144 2.88-.072 2.808-.72 0-.648-4.824-.72-5.688-1.368-.864-.648-.216-6.912-.216-6.912l-2.592-.36z"/>
    <path fill="#CD5014" d="M146.664 276.12c-.864.288-1.8.504-2.736.504-1.152 0-2.304-.216-3.312-.72-.288 1.008-.288 1.944 1.152 1.944 1.512-.072 4.464-.144 5.04-.216 1.296-.144 2.88-.072 2.808-.72 0-.432-1.44-.576-2.952-.792z"/>
    <path fill="#FAB9AF" d="M139.752 175.824c-1.08 0-2.232-.504-3.816-1.944-.936-.792-1.584-2.16-1.584-3.096V165.6h7.92s.576 2.736 0 5.472c-.288 2.088-1.656 4.752-2.52 4.752zM111.888 174.528c-.072-.504.36-1.008.864-1.008.504-.072.864.288 1.008.72.792 3.096 1.656 6.12 2.808 8.928 2.304 5.904 4.392 6.768 5.112 7.272.072 0 .504.144.576.144 2.232.504 6.192-4.392 6.912-8.208 0-.216.504-1.512.432-1.368.576-1.656 2.448-2.592 4.104-1.944 10.152 3.528-18.216 38.736-21.816-4.536z"/>
    <path fill="#FAB9AF" d="M128.88 211.176c2.88 3.312 19.656 4.752 19.656 4.752 1.224-1.44-4.536-17.856-4.536-17.856s2.808-11.808 2.664-16.128c-.072-1.8-1.512-3.168-3.24-3.168h-10.656c-1.656 0-3.024 1.224-3.168 2.88-.288 3.384 4.176 16.056 4.176 16.056s-7.416 10.584-4.896 13.464z"/>
    <path fill="#FF8C46" d="M144 198.072s2.736-12.168 2.664-16.416c-.072-1.584-1.368-2.88-2.952-2.88h-1.584c-.576 1.368-1.872 2.448-3.888 2.448-1.944 0-3.24-1.08-3.888-2.448h-1.512c1.584 3.456 1.008 7.992-1.728 10.656a145.657 145.657 0 0 0 2.592 8.28s-7.848 11.808-6.696 13.608c2.448 3.744 21.456 4.608 21.456 4.608 1.296-1.8-4.464-17.856-4.464-17.856z"/>
    <path fill="#FAB9AF" d="M136.512 179.496l4.824-.504-1.512-5.256-3.168.36-.144 5.4z"/>
    <path fill="#FA968C" d="M136.656 174.096l3.096-.36.504 1.656c-.72.792-1.584 2.52-2.736 2.52-.36 0-.72-.072-1.008-.288l.144-3.528z"/>
    <path fill="#BE1EC8" d="M135.792 163.152l2.664-.144c.792-.072 1.512-.288 2.16-.72.936-.576 2.088-.504 2.808.36.792.936 1.152 2.16-.576 3.456-.864.648-2.16.072-3.024.432h-.144l-2.376.144c-.864.072-1.368.792-1.368 1.584 0 .504-.36 1.152-.36 1.152l-1.08-1.368-1.008-.864c-.216-.216-.36-.432-.36-.72v-.144a2.789 2.789 0 0 1 2.664-3.168z"/>
    <path fill="#FAB9AF" d="M165.6 170.28s-1.296 2.448-.648 3.096c.648.648 1.152.936 2.16.072 1.008-.864 1.872-2.52 2.232-3.672.36-1.08.144-3.24 0-3.456-.648-.792-1.08 1.296-1.296 2.304-.288 1.008-.648 2.088-1.08 1.8-.432-.288.216-2.16-.216-2.592-.432-.432-1.152 2.448-1.152 2.448zM112.752 170.352s1.224 2.52.576 3.168c-.648.648-1.224.936-2.16.072-.936-.936-1.8-2.592-2.16-3.744-.36-1.152-.072-3.24.072-3.456.648-.792 1.008 1.368 1.224 2.304.216 1.008.576 2.088 1.008 1.872.432-.216-.144-2.16.288-2.592.504-.432 1.152 2.376 1.152 2.376z"/>
    <path fill="#FAB9AF" d="M151.704 188.496c2.808 3.24 4.968 1.512 7.416-2.016 1.008-1.8 2.304-3.24 5.76-12.96.36-1.08 2.016-.72 1.872.432-3.384 29.592-19.44 24.912-24.264 11.664-.36-1.008-.648-1.944-.72-3.456a3.26 3.26 0 0 1 3.24-3.384c1.8 0 3.384 1.44 3.384 3.24.144 1.224 1.368 4.32 3.312 6.48z"/>
    <path fill="#BE1EC8" d="M147.24 183.024c-1.008-.72-1.44-1.944-1.368-3.168.144-2.52-1.368-4.824-3.312-6.624-1.368-1.224-2.016-3.096-1.8-4.968l.288-2.376h-7.992c0 1.944-.936 3.816-2.52 5.04a11.898 11.898 0 0 0-4.176 5.472c-2.16 5.616-.072 11.736 4.752 13.968-1.296 5.328 1.08 10.728 5.76 12.528 5.184 2.016 11.232-1.08 13.464-6.984 1.944-4.896.504-10.152-3.096-12.888z"/>
    <path fill="#415050" d="M246.24 267.552c-1.512-.144-2.376-1.728-1.8-3.096 2.52-5.76 4.536-12.096 5.04-14.472.936-4.896-2.16-9.576-6.912-10.44-4.752-.864-6.264 2.52-7.2 7.416-.72 3.816-2.592 18.36-1.224 24.984 0 .072 1.08 5.4 6.48 5.4 3.6 0 34.92-1.152 34.992-3.96 0-2.232-19.44-4.824-29.376-5.832z"/>
    <path fill="#3C4646" d="M245.448 262.008c2.016-5.04 3.6-10.008 4.032-12.096.936-4.896-2.16-9.576-6.912-10.44-4.752-.864-6.264 2.52-7.2 7.416 0 .144-.072.288-.072.432 8.28 4.968 9.36 13.536 10.152 14.688z"/>
    <path fill="#FAB9AF" d="M301.752 275.184c-1.8-1.224-3.888-2.016-6.048-2.52-.072 0-.216 0-.288.072-.36.216-.576.432-.72.504-.072.072-.144.072-.216.072-2.952.504-6.264.216-9.72-.432-.36-.072-.576.288-.36.576l2.016 2.952a.546.546 0 0 0 .288.144c1.08 0 6.408.072 9.576.216 2.52.144 4.68.072 6.552 0 .36 0 .504-.432.288-.648-.504-.288-.864-.648-1.368-.936z"/>
    <path fill="#415050" d="M301.248 273.744l-3.024-1.656c-1.296-.72-3.24.864-3.528 1.152h.216c2.664 0 5.112 1.368 6.696 3.384.144.216.432.36.72.36 2.808.144 4.824.144 5.904.144.576 0 .864-.792.36-1.152-1.728-1.08-6.264-1.584-7.344-2.232z"/>
    <path fill="#55696E" d="M260.784 267.408c-1.728-.144-2.952-1.656-2.808-3.384.648-6.768.504-14.112.072-16.632-.792-4.896-5.328-8.208-10.08-7.416-4.752.792-5.04 4.536-4.176 9.432.648 3.816 3.456 18.576 6.912 24.696l.072.072c1.008 1.728 2.016 2.736 3.096 2.592.864.36 34.2-.072 34.2-.072s.072-2.52.216-3.456c-6.48-2.808-20.376-5.184-27.504-5.832z"/>
    <path fill="#50D1DD" d="M234.36 220.248c.864-1.152 4.248-5.688 4.752-6.84v-.072c.072-.072.072-.216.144-.288 1.008-1.728 3.168-2.232 4.896-1.296 1.728 1.008 2.232 3.168 1.296 4.896a48.254 48.254 0 0 1-2.808 4.248c-.648.864-1.44 1.728-2.16 2.592-.504-.504-6.12-3.168-6.12-3.24z"/>
    <path fill="#FAB9AF" d="M250.056 230.112c.72.144 1.512.288 2.232.432 2.592.504 5.04-1.512 5.04-4.104 0-4.392.072-8.352.072-11.016 0-1.872-1.44-3.456-3.312-3.528l-11.304-.504c-1.728-.072-3.24 1.224-3.456 2.952-.288 2.376-.432 5.976-.72 9.936-.144 2.088 1.296 4.032 3.312 4.464 2.664.504 5.4.864 8.136 1.368z"/>
    <path fill="#25BBCC" d="M242.64 211.392l1.872.072c.576 1.512 1.872 2.736 3.96 2.808 2.088.072 3.528-1.008 4.248-2.448l1.656.072c1.728.072 3.096 1.512 3.024 3.24-.072 4.464-.144 13.104 0 20.952.144 7.056 2.52 13.104 1.152 14.976 0 0-18.864 1.152-23.544-3.888.936-4.68 1.44-10.656 2.232-16.92.792-6.192 1.584-12.456 2.088-16.056.144-1.656 1.584-2.88 3.312-2.808z"/>
    <path fill="#00558C" d="M247.896 208.224h.216c1.656.216 3.168-1.008 3.312-2.592l.504-4.392-3.168-.36-.864 7.344z"/>
    <path fill="#FAB9AF" d="M247.32 212.832l4.248-.936-3.168-5.688-3.744 1.584 1.008 3.888c.144.864.864 1.296 1.656 1.152z"/>
    <path fill="#FA968C" d="M244.584 207.864l3.744-1.584 1.296 2.304c-.576 1.224-1.296 2.592-2.736 3.024-.432.144-.936.072-1.368 0l-.936-3.744z"/>
    <path fill="#FAB9AF" d="M244.872 210.384a4.845 4.845 0 0 0 5.472-4.32l.648-5.472-8.424-1.008s-.504 4.248-.288 7.2c.288 2.232 1.224 3.456 2.592 3.6z"/>
    <path fill="#00558C" d="M249.602 203.287l1.572.191.087-.714-1.572-.191-.087.714z"/>
    <path fill="#FAB9AF" d="M249.048 204.84c-.144 1.08.288 2.016.936 2.088.648.072 1.512-1.224 1.656-2.304.144-1.08-.504-1.512-1.152-1.584-.72 0-1.296.792-1.44 1.8z"/>
    <path fill="#00558C" d="M241.776 201.744a4.077 4.077 0 0 1 .144-2.088s.288-2.448 1.296-2.808c.936-.288 2.376.432 3.24.72.648.216 2.808.36 2.808.36 1.728.216 2.952 1.728 2.736 3.456l-.072.648-1.584 1.152-.576 1.224h-.144c-.576-.072-.936-.576-.936-1.08.072-.864-.432-1.728-1.368-1.8l-2.52-.288c-1.512-.216-2.448.576-2.592 1.656l-.072 1.008-.36-2.16z"/>
    <path fill="#FAB9AF" d="M258.696 216.144c-2.16 13.68-16.272 28.944-40.68 27.576a.948.948 0 0 1-.936-1.08c0-.504.432-.864.864-.936 16.488-2.232 30.456-10.296 33.696-26.568.504-2.376 2.448-3.384 4.248-3.024 1.872.36 3.096 2.16 2.808 4.032z"/>
    <path fill="#50D1DD" d="M249.192 221.544c1.656-3.6 2.16-5.832 2.16-5.832s.144-.504.216-.648c.36-1.44 1.08-2.232 1.08-2.232s1.584-1.656 4.536-.288c2.376 1.152 1.728 3.96 1.728 3.96-.072.36.216 3.456-3.528 9.072.072-.072-6.408-3.528-6.192-4.032z"/>
    <path fill="#FAB9AF" d="M215.352 241.128s2.952-.144 3.312.792c.36.864.432 1.584-.864 2.088-1.296.576-3.312.648-4.536.504-1.224-.144-3.168-1.296-3.312-1.584-.432-.936 1.728-.432 2.808-.216 1.08.216 2.304.36 2.232-.216-.072-.576-2.16-.792-2.376-1.368-.216-.648 2.736 0 2.736 0z"/>
    <path fill="#FA968C" d="M206.352 221.688s2.952-.288 3.168-1.224c.216-.936.144-1.584-1.152-1.944-1.368-.36-3.384-.216-4.536.144-.936.288-2.16 1.152-2.736 1.656h3.024c1.224 0 1.728-.36 1.728.072 0 .576-2.016 1.08-2.16 1.728-.216.576 2.664-.432 2.664-.432z"/>
</svg>
