<svg xmlns="http://www.w3.org/2000/svg" width="29" height="24" fill="none" viewBox="0 0 29 24">
    <path fill="#6D46C0" d="M27.109 5.053h-5.674V1.895A1.895 1.895 0 0 0 19.544 0H9.457C8.414 0 7.565.85 7.565 1.895v3.158H1.891C.85 5.053 0 5.903 0 6.947v15.158C0 23.15.849 24 1.891 24H27.11C28.15 24 29 23.15 29 22.105V6.947a1.895 1.895 0 0 0-1.891-1.894zM8.826 1.895c0-.349.283-.632.63-.632h10.088c.347 0 .63.283.63.632v3.158H8.826V1.895zm18.913 20.21a.632.632 0 0 1-.63.632H1.89a.632.632 0 0 1-.63-.632v-7.803a5.66 5.66 0 0 0 4.413 2.119h5.674v1.895c0 .35.282.631.63.631h5.044a.63.63 0 0 0 .63-.631V16.42h5.674a5.659 5.659 0 0 0 4.413-2.12v7.804zm-15.13-4.42v-3.79h3.782v3.79H12.61zm15.13-6.948a4.422 4.422 0 0 1-4.413 4.42h-5.674v-1.894a.63.63 0 0 0-.63-.631h-5.044a.63.63 0 0 0-.63.631v1.895H5.674a4.422 4.422 0 0 1-4.413-4.421v-3.79c0-.348.283-.631.63-.631H27.11c.347 0 .63.283.63.631v3.79z"/>
</svg>
