<svg xmlns="http://www.w3.org/2000/svg" width="18" height="18" fill="none" viewBox="0 0 18 18">
    <path fill="#FFD05B" d="M9 18A9 9 0 1 0 9 0a9 9 0 0 0 0 18z"/>
    <path fill="#fff" d="M13.195 3.728H5.017c-.61 0-1.105.496-1.105 1.105v5.145c0 .61.496 1.106 1.105 1.106h.865s-.213 2.154-2.183 3.189c0 0 3.77-.114 5.556-3.19h3.954c.61 0 1.106-.495 1.106-1.105V4.833a1.11 1.11 0 0 0-1.12-1.105z"/>
    <path fill="#4CDBC4" d="M5.372 8.589v-.567c.099.085.212.156.34.198.127.043.24.071.368.071.071 0 .142 0 .185-.014a.425.425 0 0 0 .141-.057c.043-.028.057-.056.085-.085a.263.263 0 0 0 .029-.099c0-.056-.014-.099-.043-.127-.028-.043-.07-.071-.113-.114a1.805 1.805 0 0 0-.17-.099c-.071-.028-.142-.057-.213-.1-.198-.084-.354-.183-.44-.297a.655.655 0 0 1-.141-.44c0-.127.028-.24.085-.34.057-.099.128-.17.213-.24a.986.986 0 0 1 .326-.142 1.76 1.76 0 0 1 .382-.043c.128 0 .255.015.355.029.099.014.198.042.283.07v.54a1.243 1.243 0 0 0-.142-.086.69.69 0 0 0-.155-.056.731.731 0 0 0-.156-.029c-.057-.014-.1-.014-.156-.014-.071 0-.128 0-.185.014a.425.425 0 0 0-.141.057c-.043.028-.071.042-.085.085a.263.263 0 0 0-.029.1c0 .042.014.084.029.113.028.028.056.07.099.099a.768.768 0 0 0 .156.085c.056.028.127.056.198.085.1.042.199.085.27.142.085.042.155.099.212.155.057.057.1.128.128.213.028.07.042.17.042.27a.69.69 0 0 1-.085.354.733.733 0 0 1-.227.24c-.099.057-.198.1-.326.128a1.76 1.76 0 0 1-.78 0 .743.743 0 0 1-.34-.099zM10.431 8.688h-.566v-1.53c0-.17.014-.34.028-.553h-.014a1.93 1.93 0 0 1-.085.34l-.596 1.73h-.467l-.61-1.716c-.014-.042-.042-.17-.085-.354h-.014c.014.255.028.468.028.666v1.417h-.524v-2.55h.836l.525 1.516c.042.127.07.24.085.368H9c.028-.142.07-.27.1-.368l.524-1.503h.822v2.537h-.014zM10.9 8.589v-.567c.098.085.212.156.34.198.127.043.24.071.368.071.07 0 .142 0 .184-.014a.424.424 0 0 0 .142-.057c.042-.028.057-.056.085-.085a.264.264 0 0 0 .028-.099c0-.056-.014-.099-.042-.127-.029-.043-.071-.071-.114-.114a1.802 1.802 0 0 0-.17-.099c-.07-.028-.142-.057-.212-.1-.199-.084-.355-.183-.44-.297a.655.655 0 0 1-.142-.44c0-.127.029-.24.086-.34.056-.099.127-.17.212-.24a.985.985 0 0 1 .326-.142 1.76 1.76 0 0 1 .383-.043c.127 0 .255.015.354.029.1.014.199.042.284.07v.54a1.242 1.242 0 0 0-.142-.086.69.69 0 0 0-.156-.056.731.731 0 0 0-.156-.029c-.057-.014-.1-.014-.156-.014-.07 0-.127 0-.184.014a.424.424 0 0 0-.142.057c-.042.028-.07.042-.085.085a.264.264 0 0 0-.028.1c0 .042.014.084.028.113.028.028.057.07.1.099a.767.767 0 0 0 .155.085c.057.028.128.056.199.085.099.042.198.085.269.142.085.042.156.099.213.155.056.057.099.128.127.213.028.07.043.17.043.27a.69.69 0 0 1-.085.354.733.733 0 0 1-.227.24c-.1.057-.199.1-.326.128a1.76 1.76 0 0 1-.78 0c-.127-.028-.24-.042-.34-.099z"/>
</svg>
