<svg xmlns="http://www.w3.org/2000/svg" width="19" height="19" viewBox="0 0 19 19">
    <path fill="#ffffff" fill-rule="nonzero" d="M4.303 18.24c-.204 0-.34-.072-.476-.144-.273-.215-.409-.573-.34-1.003l.816-5.017c0-.072 0-.215-.136-.287L.697 8.277c-.273-.286-.41-.645-.273-1.003.136-.358.408-.573.817-.645l4.831-.717c.069 0 .205-.071.273-.215l2.11-4.515c.068-.573.408-.788.748-.788s.68.215.817.573l2.178 4.587c.068.072.136.143.272.143l4.764.717c.408.072.68.287.816.645.136.358 0 .717-.272 1.003l-3.47 3.584c-.069.072-.069.215-.069.287l.817 5.016c.068.43-.068.789-.34 1.004-.273.215-.68.215-1.021 0l-4.288-2.365h-.34l-4.288 2.365c-.204.215-.34.286-.476.286z"/>
</svg>
