<svg xmlns="http://www.w3.org/2000/svg" width="22" height="21" fill="none" viewBox="0 0 22 21">
    <path fill="#BBDEFB" d="M12.375 17.5c4.936 0 8.937-3.76 8.937-8.4 0-4.64-4-8.4-8.937-8.4-4.936 0-8.938 3.76-8.938 8.4 0 0 .645 4.2-2.75 4.2 0 3.5 6.188 4.2 11.688 4.2z"/>
    <path fill="#455A64" d="M12.375 18.2C4.048 18.2 0 16.597 0 13.3c0-.386.308-.7.687-.7.682 0 1.18-.199 1.523-.605.803-.956.551-2.77.548-2.787C2.75 4.082 7.068 0 12.375 0 17.68 0 22 4.082 22 9.1s-4.319 9.1-9.625 9.1zM1.479 13.927C2.134 15.81 5.87 16.8 12.375 16.8c4.55 0 8.25-3.455 8.25-7.7 0-4.246-3.7-7.7-8.25-7.7s-8.25 3.454-8.25 7.7c.008 0 .35 2.353-.87 3.805-.456.54-1.05.884-1.776 1.022z"/>
    <path fill="#37474F" d="M15.125 21c1.519 0 2.75-1.254 2.75-2.8 0-1.546-1.231-2.8-2.75-2.8s-2.75 1.254-2.75 2.8c0 1.546 1.231 2.8 2.75 2.8zM6.875 21c1.519 0 2.75-1.254 2.75-2.8 0-1.546-1.231-2.8-2.75-2.8s-2.75 1.254-2.75 2.8c0 1.546 1.231 2.8 2.75 2.8z"/>
    <path fill="#455A64" d="M9.652 7.7a.7.7 0 0 1-.694-.7c0-.386.301-.7.68-.7h.014c.38 0 .688.314.688.7 0 .386-.308.7-.688.7zM15.152 7.7a.7.7 0 0 1-.694-.7c0-.386.301-.7.68-.7h.014c.38 0 .688.314.688.7 0 .386-.308.7-.688.7zM12.375 14c-1.983 0-3.673-1.375-4.109-3.346a.702.702 0 0 1 .52-.837.69.69 0 0 1 .822.529c.293 1.327 1.432 2.254 2.767 2.254 1.336 0 2.473-.927 2.766-2.254a.688.688 0 0 1 .823-.53c.37.086.603.46.52.838C16.05 12.624 14.36 14 12.375 14z"/>
</svg>
