<svg xmlns="http://www.w3.org/2000/svg" width="12" height="14" fill="none" viewBox="0 0 12 14">
    <path fill="#fff" d="M5.997 3.776c.736 0 1.332-.563 1.332-1.259 0-.236-.07-.459-.19-.648L5.997 0 4.854 1.87c-.12.188-.19.411-.19.647 0 .696.596 1.26 1.333 1.26zM9.994 5.664H6.663V4.406H5.33v1.258H2C.896 5.664 0 6.511 0 7.552v.97c0 .68.586 1.233 1.306 1.233.35 0 .676-.129.923-.362L3.655 8.05l1.422 1.34c.493.466 1.353.466 1.846 0l1.426-1.34L9.77 9.39c.247.233.573.362.923.362.72 0 1.306-.554 1.306-1.233v-.967c-.007-1.041-.903-1.888-2.006-1.888z"/>
    <path fill="#fff" d="M9.058 10.06l-.716-.676-.72.676c-.87.822-2.388.822-3.258 0l-.716-.676-.72.676a2.327 2.327 0 0 1-1.622.64c-.483 0-.933-.145-1.306-.388v2.905c0 .346.3.63.666.63h10.661c.367 0 .666-.284.666-.63v-2.905c-.373.243-.82.387-1.306.387a2.355 2.355 0 0 1-1.629-.639z"/>
</svg>
