<svg xmlns="http://www.w3.org/2000/svg" xmlns:xlink="http://www.w3.org/1999/xlink" viewBox="0 0 40 40"><defs><style>.cls-1{fill:#fff}.cls-1,.cls-3{fill-rule:evenodd}.cls-2,.cls-3{fill:#ff6054}</style><symbol id="New_Symbol_22" data-name="New Symbol 22" viewBox="0 0 58 58"><path class="cls-1" d="M29 56a27 27 0 1 1 27-27 27 27 0 0 1-27 27z"/><path class="cls-2" d="M29 4A25 25 0 1 1 4 29 25 25 0 0 1 29 4m0-4a29 29 0 1 0 29 29A29 29 0 0 0 29 0z"/><path class="cls-3" d="M39.91 16.71L24.16 33.06l-6.07-5.59-4.48 4.12 10.55 9.72 20.23-20.47-4.48-4.13z"/></symbol></defs><title>Checked</title><g id="Layer_2" data-name="Layer 2"><use width="58" height="58" transform="scale(.69)" xlink:href="#New_Symbol_22" id="Layer_1-2" data-name="Layer 1"/></g></svg>